<svg width="430" height="430" viewBox="0 0 430 430" fill="none" xmlns="http://www.w3.org/2000/svg">
<mask id="path-1-outside-1_155_42" maskUnits="userSpaceOnUse" x="41" y="100" width="352" height="220" fill="black">
<rect fill="white" x="41" y="100" width="352" height="220"/>
<path d="M105.53 188.344C100.154 188.344 95.1939 187.48 90.6499 185.752C86.1059 184.024 82.1379 181.592 78.7459 178.456C75.4179 175.256 72.8259 171.544 70.9699 167.32C69.1139 163.096 68.1859 158.456 68.1859 153.4C68.1859 148.344 69.1139 143.704 70.9699 139.48C72.8259 135.256 75.4179 131.576 78.7459 128.44C82.1379 125.24 86.1059 122.776 90.6499 121.048C95.1939 119.32 100.154 118.456 105.53 118.456C110.97 118.456 115.93 119.32 120.41 121.048C124.954 122.776 128.89 125.24 132.218 128.44C135.546 131.576 138.138 135.256 139.994 139.48C141.914 143.704 142.874 148.344 142.874 153.4C142.874 158.456 141.914 163.128 139.994 167.416C138.138 171.64 135.546 175.32 132.218 178.456C128.89 181.592 124.954 184.024 120.41 185.752C115.93 187.48 110.97 188.344 105.53 188.344ZM105.53 172.6C108.09 172.6 110.458 172.152 112.634 171.256C114.874 170.36 116.794 169.08 118.394 167.416C120.058 165.688 121.338 163.64 122.234 161.272C123.194 158.904 123.674 156.28 123.674 153.4C123.674 150.456 123.194 147.832 122.234 145.528C121.338 143.16 120.058 141.144 118.394 139.48C116.794 137.752 114.874 136.44 112.634 135.544C110.458 134.648 108.09 134.2 105.53 134.2C102.97 134.2 100.57 134.648 98.3299 135.544C96.1539 136.44 94.2339 137.752 92.5699 139.48C90.9699 141.144 89.6899 143.16 88.7299 145.528C87.8339 147.832 87.3859 150.456 87.3859 153.4C87.3859 156.28 87.8339 158.904 88.7299 161.272C89.6899 163.64 90.9699 165.688 92.5699 167.416C94.2339 169.08 96.1539 170.36 98.3299 171.256C100.57 172.152 102.97 172.6 105.53 172.6ZM185.853 134.104C189.885 134.104 193.533 134.936 196.797 136.6C200.061 138.2 202.621 140.696 204.477 144.088C206.397 147.48 207.357 151.864 207.357 157.24V187H189.117V160.216C189.117 156.504 188.349 153.816 186.813 152.152C185.341 150.424 183.261 149.56 180.573 149.56C178.653 149.56 176.893 150.008 175.293 150.904C173.693 151.736 172.445 153.048 171.549 154.84C170.653 156.632 170.205 158.968 170.205 161.848V187H151.965V115.768H170.205V149.752L165.981 145.432C167.965 141.656 170.685 138.84 174.141 136.984C177.597 135.064 181.501 134.104 185.853 134.104ZM219.673 187V119.8H235.321L263.161 165.496H254.905L281.977 119.8H297.625L297.817 187H280.345L280.153 146.392H283.129L262.873 180.376H254.425L233.593 146.392H237.241V187H219.673ZM319.331 206.488C316.579 206.488 313.795 206.04 310.979 205.144C308.227 204.312 305.987 203.192 304.259 201.784L310.595 189.016C311.683 189.976 312.931 190.712 314.339 191.224C315.811 191.8 317.251 192.088 318.659 192.088C320.643 192.088 322.211 191.64 323.363 190.744C324.515 189.848 325.507 188.44 326.339 186.52L328.739 180.472L330.179 178.648L347.843 134.968H365.219L342.755 189.112C340.963 193.592 338.883 197.08 336.515 199.576C334.211 202.136 331.619 203.928 328.739 204.952C325.923 205.976 322.787 206.488 319.331 206.488ZM326.435 189.208L303.491 134.968H322.211L339.107 177.016L326.435 189.208ZM56.0325 304V236.8H71.6805L108.737 281.536H101.345V236.8H119.969V304H104.321L67.2645 259.264H74.6565V304H56.0325ZM164.288 304V294.304L163.04 291.904V274.048C163.04 271.168 162.144 268.96 160.352 267.424C158.624 265.824 155.84 265.024 152 265.024C149.504 265.024 146.976 265.44 144.416 266.272C141.856 267.04 139.68 268.128 137.888 269.536L131.744 257.152C134.688 255.232 138.208 253.76 142.304 252.736C146.464 251.648 150.592 251.104 154.688 251.104C163.136 251.104 169.664 253.056 174.272 256.96C178.944 260.8 181.28 266.848 181.28 275.104V304H164.288ZM148.928 304.864C144.768 304.864 141.248 304.16 138.368 302.752C135.488 301.344 133.28 299.424 131.744 296.992C130.272 294.56 129.536 291.84 129.536 288.832C129.536 285.632 130.336 282.88 131.936 280.576C133.6 278.208 136.128 276.416 139.52 275.2C142.912 273.92 147.296 273.28 152.672 273.28H164.96V282.784H155.168C152.224 282.784 150.144 283.264 148.928 284.224C147.776 285.184 147.2 286.464 147.2 288.064C147.2 289.664 147.808 290.944 149.024 291.904C150.24 292.864 151.904 293.344 154.016 293.344C156 293.344 157.792 292.864 159.392 291.904C161.056 290.88 162.272 289.344 163.04 287.296L165.536 294.016C164.576 297.6 162.688 300.32 159.872 302.176C157.12 303.968 153.472 304.864 148.928 304.864ZM216.026 304.864C209.37 304.864 204.186 303.232 200.474 299.968C196.762 296.64 194.906 291.648 194.906 284.992V240.352H213.146V284.8C213.146 286.656 213.658 288.128 214.682 289.216C215.706 290.24 217.018 290.752 218.618 290.752C220.794 290.752 222.65 290.208 224.186 289.12L228.698 301.888C227.162 302.912 225.274 303.648 223.034 304.096C220.794 304.608 218.458 304.864 216.026 304.864ZM187.322 267.52V253.888H225.05V267.52H187.322ZM235.731 304V251.968H253.971V304H235.731ZM244.851 246.208C241.523 246.208 238.835 245.28 236.787 243.424C234.739 241.568 233.715 239.264 233.715 236.512C233.715 233.76 234.739 231.456 236.787 229.6C238.835 227.744 241.523 226.816 244.851 226.816C248.179 226.816 250.867 227.712 252.915 229.504C254.963 231.232 255.987 233.472 255.987 236.224C255.987 239.104 254.963 241.504 252.915 243.424C250.931 245.28 248.243 246.208 244.851 246.208ZM280.321 304L258.913 251.968H277.633L294.721 295.456H285.313L303.265 251.968H320.641L299.137 304H280.321ZM351.214 304.864C345.07 304.864 339.694 303.712 335.086 301.408C330.542 299.04 326.99 295.84 324.43 291.808C321.934 287.712 320.686 283.072 320.686 277.888C320.686 272.704 321.902 268.096 324.334 264.064C326.83 259.968 330.254 256.8 334.606 254.56C338.958 252.256 343.854 251.104 349.294 251.104C354.414 251.104 359.086 252.16 363.31 254.272C367.534 256.32 370.894 259.36 373.39 263.392C375.886 267.424 377.134 272.32 377.134 278.08C377.134 278.72 377.102 279.456 377.038 280.288C376.974 281.12 376.91 281.888 376.846 282.592H335.662V272.992H367.15L360.238 275.68C360.302 273.312 359.854 271.264 358.894 269.536C357.998 267.808 356.718 266.464 355.054 265.504C353.454 264.544 351.566 264.064 349.39 264.064C347.214 264.064 345.294 264.544 343.63 265.504C342.03 266.464 340.782 267.84 339.886 269.632C338.99 271.36 338.542 273.408 338.542 275.776V278.56C338.542 281.12 339.054 283.328 340.078 285.184C341.166 287.04 342.702 288.48 344.686 289.504C346.67 290.464 349.038 290.944 351.79 290.944C354.35 290.944 356.526 290.592 358.318 289.888C360.174 289.12 361.998 287.968 363.79 286.432L373.39 296.416C370.894 299.168 367.822 301.28 364.174 302.752C360.526 304.16 356.206 304.864 351.214 304.864Z"/>
</mask>
<path d="M105.53 188.344C100.154 188.344 95.1939 187.48 90.6499 185.752C86.1059 184.024 82.1379 181.592 78.7459 178.456C75.4179 175.256 72.8259 171.544 70.9699 167.32C69.1139 163.096 68.1859 158.456 68.1859 153.4C68.1859 148.344 69.1139 143.704 70.9699 139.48C72.8259 135.256 75.4179 131.576 78.7459 128.44C82.1379 125.24 86.1059 122.776 90.6499 121.048C95.1939 119.32 100.154 118.456 105.53 118.456C110.97 118.456 115.93 119.32 120.41 121.048C124.954 122.776 128.89 125.24 132.218 128.44C135.546 131.576 138.138 135.256 139.994 139.48C141.914 143.704 142.874 148.344 142.874 153.4C142.874 158.456 141.914 163.128 139.994 167.416C138.138 171.64 135.546 175.32 132.218 178.456C128.89 181.592 124.954 184.024 120.41 185.752C115.93 187.48 110.97 188.344 105.53 188.344ZM105.53 172.6C108.09 172.6 110.458 172.152 112.634 171.256C114.874 170.36 116.794 169.08 118.394 167.416C120.058 165.688 121.338 163.64 122.234 161.272C123.194 158.904 123.674 156.28 123.674 153.4C123.674 150.456 123.194 147.832 122.234 145.528C121.338 143.16 120.058 141.144 118.394 139.48C116.794 137.752 114.874 136.44 112.634 135.544C110.458 134.648 108.09 134.2 105.53 134.2C102.97 134.2 100.57 134.648 98.3299 135.544C96.1539 136.44 94.2339 137.752 92.5699 139.48C90.9699 141.144 89.6899 143.16 88.7299 145.528C87.8339 147.832 87.3859 150.456 87.3859 153.4C87.3859 156.28 87.8339 158.904 88.7299 161.272C89.6899 163.64 90.9699 165.688 92.5699 167.416C94.2339 169.08 96.1539 170.36 98.3299 171.256C100.57 172.152 102.97 172.6 105.53 172.6ZM185.853 134.104C189.885 134.104 193.533 134.936 196.797 136.6C200.061 138.2 202.621 140.696 204.477 144.088C206.397 147.48 207.357 151.864 207.357 157.24V187H189.117V160.216C189.117 156.504 188.349 153.816 186.813 152.152C185.341 150.424 183.261 149.56 180.573 149.56C178.653 149.56 176.893 150.008 175.293 150.904C173.693 151.736 172.445 153.048 171.549 154.84C170.653 156.632 170.205 158.968 170.205 161.848V187H151.965V115.768H170.205V149.752L165.981 145.432C167.965 141.656 170.685 138.84 174.141 136.984C177.597 135.064 181.501 134.104 185.853 134.104ZM219.673 187V119.8H235.321L263.161 165.496H254.905L281.977 119.8H297.625L297.817 187H280.345L280.153 146.392H283.129L262.873 180.376H254.425L233.593 146.392H237.241V187H219.673ZM319.331 206.488C316.579 206.488 313.795 206.04 310.979 205.144C308.227 204.312 305.987 203.192 304.259 201.784L310.595 189.016C311.683 189.976 312.931 190.712 314.339 191.224C315.811 191.8 317.251 192.088 318.659 192.088C320.643 192.088 322.211 191.64 323.363 190.744C324.515 189.848 325.507 188.44 326.339 186.52L328.739 180.472L330.179 178.648L347.843 134.968H365.219L342.755 189.112C340.963 193.592 338.883 197.08 336.515 199.576C334.211 202.136 331.619 203.928 328.739 204.952C325.923 205.976 322.787 206.488 319.331 206.488ZM326.435 189.208L303.491 134.968H322.211L339.107 177.016L326.435 189.208ZM56.0325 304V236.8H71.6805L108.737 281.536H101.345V236.8H119.969V304H104.321L67.2645 259.264H74.6565V304H56.0325ZM164.288 304V294.304L163.04 291.904V274.048C163.04 271.168 162.144 268.96 160.352 267.424C158.624 265.824 155.84 265.024 152 265.024C149.504 265.024 146.976 265.44 144.416 266.272C141.856 267.04 139.68 268.128 137.888 269.536L131.744 257.152C134.688 255.232 138.208 253.76 142.304 252.736C146.464 251.648 150.592 251.104 154.688 251.104C163.136 251.104 169.664 253.056 174.272 256.96C178.944 260.8 181.28 266.848 181.28 275.104V304H164.288ZM148.928 304.864C144.768 304.864 141.248 304.16 138.368 302.752C135.488 301.344 133.28 299.424 131.744 296.992C130.272 294.56 129.536 291.84 129.536 288.832C129.536 285.632 130.336 282.88 131.936 280.576C133.6 278.208 136.128 276.416 139.52 275.2C142.912 273.92 147.296 273.28 152.672 273.28H164.96V282.784H155.168C152.224 282.784 150.144 283.264 148.928 284.224C147.776 285.184 147.2 286.464 147.2 288.064C147.2 289.664 147.808 290.944 149.024 291.904C150.24 292.864 151.904 293.344 154.016 293.344C156 293.344 157.792 292.864 159.392 291.904C161.056 290.88 162.272 289.344 163.04 287.296L165.536 294.016C164.576 297.6 162.688 300.32 159.872 302.176C157.12 303.968 153.472 304.864 148.928 304.864ZM216.026 304.864C209.37 304.864 204.186 303.232 200.474 299.968C196.762 296.64 194.906 291.648 194.906 284.992V240.352H213.146V284.8C213.146 286.656 213.658 288.128 214.682 289.216C215.706 290.24 217.018 290.752 218.618 290.752C220.794 290.752 222.65 290.208 224.186 289.12L228.698 301.888C227.162 302.912 225.274 303.648 223.034 304.096C220.794 304.608 218.458 304.864 216.026 304.864ZM187.322 267.52V253.888H225.05V267.52H187.322ZM235.731 304V251.968H253.971V304H235.731ZM244.851 246.208C241.523 246.208 238.835 245.28 236.787 243.424C234.739 241.568 233.715 239.264 233.715 236.512C233.715 233.76 234.739 231.456 236.787 229.6C238.835 227.744 241.523 226.816 244.851 226.816C248.179 226.816 250.867 227.712 252.915 229.504C254.963 231.232 255.987 233.472 255.987 236.224C255.987 239.104 254.963 241.504 252.915 243.424C250.931 245.28 248.243 246.208 244.851 246.208ZM280.321 304L258.913 251.968H277.633L294.721 295.456H285.313L303.265 251.968H320.641L299.137 304H280.321ZM351.214 304.864C345.07 304.864 339.694 303.712 335.086 301.408C330.542 299.04 326.99 295.84 324.43 291.808C321.934 287.712 320.686 283.072 320.686 277.888C320.686 272.704 321.902 268.096 324.334 264.064C326.83 259.968 330.254 256.8 334.606 254.56C338.958 252.256 343.854 251.104 349.294 251.104C354.414 251.104 359.086 252.16 363.31 254.272C367.534 256.32 370.894 259.36 373.39 263.392C375.886 267.424 377.134 272.32 377.134 278.08C377.134 278.72 377.102 279.456 377.038 280.288C376.974 281.12 376.91 281.888 376.846 282.592H335.662V272.992H367.15L360.238 275.68C360.302 273.312 359.854 271.264 358.894 269.536C357.998 267.808 356.718 266.464 355.054 265.504C353.454 264.544 351.566 264.064 349.39 264.064C347.214 264.064 345.294 264.544 343.63 265.504C342.03 266.464 340.782 267.84 339.886 269.632C338.99 271.36 338.542 273.408 338.542 275.776V278.56C338.542 281.12 339.054 283.328 340.078 285.184C341.166 287.04 342.702 288.48 344.686 289.504C346.67 290.464 349.038 290.944 351.79 290.944C354.35 290.944 356.526 290.592 358.318 289.888C360.174 289.12 361.998 287.968 363.79 286.432L373.39 296.416C370.894 299.168 367.822 301.28 364.174 302.752C360.526 304.16 356.206 304.864 351.214 304.864Z" fill="white"/>
<path d="M90.6499 185.752L85.3182 199.772L85.3182 199.772L90.6499 185.752ZM78.7459 178.456L68.3492 189.268C68.4199 189.336 68.4911 189.404 68.563 189.47L78.7459 178.456ZM70.9699 167.32L57.2371 173.354L57.2371 173.354L70.9699 167.32ZM70.9699 139.48L57.2371 133.446L57.2371 133.446L70.9699 139.48ZM78.7459 128.44L89.0329 139.357L89.0392 139.351L78.7459 128.44ZM90.6499 121.048L85.3182 107.028L85.3182 107.028L90.6499 121.048ZM120.41 121.048L115.012 135.043C115.034 135.052 115.056 135.06 115.078 135.068L120.41 121.048ZM132.218 128.44L121.821 139.252C121.858 139.287 121.894 139.322 121.931 139.357L132.218 128.44ZM139.994 139.48L126.261 145.514C126.286 145.572 126.312 145.63 126.338 145.687L139.994 139.48ZM139.994 167.416L126.304 161.286C126.289 161.318 126.275 161.35 126.261 161.382L139.994 167.416ZM132.218 178.456L142.505 189.373L142.505 189.373L132.218 178.456ZM120.41 185.752L115.078 171.732C115.056 171.74 115.034 171.748 115.012 171.757L120.41 185.752ZM112.634 171.256L107.063 157.329C107.016 157.348 106.969 157.367 106.923 157.386L112.634 171.256ZM118.394 167.416L107.589 157.011L107.581 157.019L118.394 167.416ZM122.234 161.272L108.333 155.636C108.289 155.745 108.246 155.854 108.205 155.964L122.234 161.272ZM122.234 145.528L108.205 150.836C108.263 150.991 108.324 151.145 108.388 151.297L122.234 145.528ZM118.394 139.48L107.387 149.671C107.518 149.812 107.651 149.951 107.787 150.087L118.394 139.48ZM112.634 135.544L106.923 149.414C106.969 149.433 107.016 149.452 107.063 149.471L112.634 135.544ZM98.3299 135.544L92.759 121.617C92.7121 121.636 92.6653 121.655 92.6186 121.674L98.3299 135.544ZM92.5699 139.48L81.7651 129.075L81.7574 129.083L92.5699 139.48ZM88.7299 145.528L74.8288 139.892C74.802 139.959 74.7757 140.025 74.7498 140.091L88.7299 145.528ZM88.7299 161.272L74.7006 166.58C74.742 166.69 74.7848 166.799 74.8288 166.908L88.7299 161.272ZM92.5699 167.416L81.5635 177.607C81.6941 177.748 81.8274 177.887 81.9633 178.023L92.5699 167.416ZM98.3299 171.256L92.6186 185.126C92.6653 185.145 92.7121 185.164 92.759 185.183L98.3299 171.256ZM105.53 173.344C101.783 173.344 98.6515 172.747 95.9816 171.732L85.3182 199.772C91.7362 202.213 98.5244 203.344 105.53 203.344V173.344ZM95.9816 171.732C93.1368 170.65 90.8379 169.207 88.9287 167.442L68.563 189.47C73.4378 193.977 79.075 197.398 85.3182 199.772L95.9816 171.732ZM89.1425 167.644C87.2273 165.802 85.7692 163.713 84.7027 161.286L57.2371 173.354C59.8826 179.375 63.6085 184.71 68.3492 189.268L89.1425 167.644ZM84.7027 161.286C83.7595 159.139 83.1859 156.579 83.1859 153.4H53.1859C53.1859 160.333 54.4682 167.053 57.2371 173.354L84.7027 161.286ZM83.1859 153.4C83.1859 150.221 83.7595 147.661 84.7027 145.514L57.2371 133.446C54.4682 139.747 53.1859 146.467 53.1859 153.4H83.1859ZM84.7027 145.514C85.7567 143.115 87.1828 141.1 89.0329 139.357L68.4589 117.523C63.6529 122.052 59.8951 127.397 57.2371 133.446L84.7027 145.514ZM89.0392 139.351C90.9369 137.561 93.1999 136.126 95.9816 135.068L85.3182 107.028C79.0119 109.426 73.3389 112.919 68.4526 117.529L89.0392 139.351ZM95.9816 135.068C98.6515 134.053 101.783 133.456 105.53 133.456V103.456C98.5244 103.456 91.7362 104.587 85.3182 107.028L95.9816 135.068ZM105.53 133.456C109.367 133.456 112.467 134.062 115.012 135.043L125.808 107.053C119.392 104.578 112.572 103.456 105.53 103.456V133.456ZM115.078 135.068C117.837 136.118 120.025 137.525 121.821 139.252L142.615 117.628C137.755 112.955 132.071 109.434 125.742 107.028L115.078 135.068ZM121.931 139.357C123.781 141.1 125.207 143.115 126.261 145.514L153.727 133.446C151.069 127.397 147.311 122.052 142.505 117.523L121.931 139.357ZM126.338 145.687C127.295 147.792 127.874 150.291 127.874 153.4H157.874C157.874 146.397 156.532 139.616 153.649 133.273L126.338 145.687ZM127.874 153.4C127.874 156.506 127.296 159.07 126.304 161.286L153.684 173.546C156.532 167.186 157.874 160.406 157.874 153.4H127.874ZM126.261 161.382C125.207 163.781 123.781 165.796 121.931 167.539L142.505 189.373C147.311 184.844 151.069 179.499 153.727 173.45L126.261 161.382ZM121.931 167.539C120.124 169.242 117.9 170.658 115.078 171.732L125.742 199.772C132.007 197.39 137.656 193.942 142.505 189.373L121.931 167.539ZM115.012 171.757C112.467 172.738 109.367 173.344 105.53 173.344V203.344C112.572 203.344 119.392 202.222 125.808 199.747L115.012 171.757ZM105.53 187.6C109.876 187.6 114.204 186.831 118.345 185.126L106.923 157.386C106.712 157.473 106.304 157.6 105.53 157.6V187.6ZM118.205 185.183C122.332 183.532 126.063 181.082 129.206 177.813L107.581 157.019C107.525 157.078 107.416 157.188 107.063 157.329L118.205 185.183ZM129.199 177.821C132.349 174.549 134.689 170.741 136.263 166.58L108.205 155.964C107.987 156.539 107.767 156.827 107.589 157.011L129.199 177.821ZM136.135 166.908C137.907 162.536 138.674 157.967 138.674 153.4H108.674C108.674 154.593 108.48 155.272 108.333 155.636L136.135 166.908ZM138.674 153.4C138.674 148.825 137.926 144.188 136.08 139.759L108.388 151.297C108.462 151.476 108.674 152.087 108.674 153.4H138.674ZM136.263 140.22C134.673 136.016 132.28 132.153 129 128.873L107.787 150.087C107.836 150.135 108.003 150.304 108.205 150.836L136.263 140.22ZM129.4 129.289C126.25 125.887 122.459 123.319 118.205 121.617L107.063 149.471C107.289 149.561 107.337 149.617 107.387 149.671L129.4 129.289ZM118.345 121.674C114.204 119.969 109.876 119.2 105.53 119.2V149.2C106.304 149.2 106.712 149.327 106.923 149.414L118.345 121.674ZM105.53 119.2C101.18 119.2 96.8772 119.97 92.759 121.617L103.901 149.471C104.263 149.326 104.76 149.2 105.53 149.2V119.2ZM92.6186 121.674C88.4854 123.376 84.8401 125.882 81.7651 129.075L103.375 149.885C103.628 149.622 103.822 149.504 104.041 149.414L92.6186 121.674ZM81.7574 129.083C78.6998 132.263 76.4293 135.944 74.8288 139.892L102.631 151.164C102.95 150.376 103.24 150.025 103.382 149.877L81.7574 129.083ZM74.7498 140.091C73.0644 144.425 72.3859 148.943 72.3859 153.4H102.386C102.386 151.969 102.603 151.239 102.71 150.965L74.7498 140.091ZM72.3859 153.4C72.3859 157.847 73.0809 162.3 74.7006 166.58L102.759 155.964C102.587 155.508 102.386 154.713 102.386 153.4H72.3859ZM74.8288 166.908C76.4122 170.813 78.6302 174.439 81.5635 177.607L103.576 157.225C103.31 156.937 102.968 156.467 102.631 155.636L74.8288 166.908ZM81.9633 178.023C85.0276 181.087 88.6114 183.476 92.6186 185.126L104.041 157.386C103.696 157.244 103.44 157.073 103.176 156.809L81.9633 178.023ZM92.759 185.183C96.8772 186.83 101.18 187.6 105.53 187.6V157.6C104.76 157.6 104.263 157.474 103.901 157.329L92.759 185.183ZM196.797 136.6L189.985 149.964C190.054 149.999 190.125 150.034 190.195 150.069L196.797 136.6ZM204.477 144.088L191.318 151.288C191.353 151.351 191.388 151.414 191.424 151.477L204.477 144.088ZM207.357 187V202C215.642 202 222.357 195.284 222.357 187H207.357ZM189.117 187H174.117C174.117 195.284 180.833 202 189.117 202V187ZM186.813 152.152L175.395 161.879C175.524 162.031 175.656 162.18 175.791 162.326L186.813 152.152ZM175.293 150.904L182.214 164.212C182.351 164.141 182.487 164.067 182.622 163.992L175.293 150.904ZM170.205 187V202C178.49 202 185.205 195.284 185.205 187H170.205ZM151.965 187H136.965C136.965 195.284 143.681 202 151.965 202V187ZM151.965 115.768V100.768C143.681 100.768 136.965 107.484 136.965 115.768H151.965ZM170.205 115.768H185.205C185.205 107.484 178.49 100.768 170.205 100.768V115.768ZM170.205 149.752L159.48 160.239C163.743 164.599 170.221 165.944 175.868 163.642C181.514 161.34 185.205 155.85 185.205 149.752H170.205ZM165.981 145.432L152.703 138.455C149.677 144.214 150.708 151.267 155.256 155.919L165.981 145.432ZM174.141 136.984L181.238 150.199C181.301 150.165 181.364 150.131 181.426 150.096L174.141 136.984ZM185.853 149.104C187.759 149.104 189.036 149.48 189.985 149.964L203.61 123.236C198.031 120.392 192.012 119.104 185.853 119.104V149.104ZM190.195 150.069C190.497 150.217 190.849 150.429 191.318 151.288L217.636 136.888C214.394 130.963 209.625 126.183 203.4 123.131L190.195 150.069ZM191.424 151.477C191.675 151.92 192.357 153.517 192.357 157.24H222.357C222.357 150.211 221.12 143.04 217.531 136.699L191.424 151.477ZM192.357 157.24V187H222.357V157.24H192.357ZM207.357 172H189.117V202H207.357V172ZM204.117 187V160.216H174.117V187H204.117ZM204.117 160.216C204.117 155.002 203.136 147.72 197.835 141.978L175.791 162.326C174.638 161.077 174.231 159.93 174.119 159.537C174.018 159.185 174.117 159.327 174.117 160.216H204.117ZM198.232 142.425C193.378 136.726 186.763 134.56 180.573 134.56V164.56C180.317 164.56 179.496 164.518 178.395 164.06C177.23 163.576 176.182 162.803 175.395 161.879L198.232 142.425ZM180.573 134.56C176.212 134.56 171.91 135.607 167.964 137.816L182.622 163.992C182.292 164.176 181.914 164.331 181.514 164.432C181.117 164.533 180.79 164.56 180.573 164.56V134.56ZM168.373 137.596C163.656 140.049 160.279 143.839 158.133 148.132L184.966 161.548C184.819 161.842 184.529 162.321 184.026 162.85C183.512 163.391 182.891 163.86 182.214 164.212L168.373 137.596ZM158.133 148.132C155.841 152.715 155.205 157.587 155.205 161.848H185.205C185.205 161.515 185.218 161.259 185.234 161.074C185.25 160.888 185.268 160.788 185.273 160.761C185.285 160.698 185.234 161.012 184.966 161.548L158.133 148.132ZM155.205 161.848V187H185.205V161.848H155.205ZM170.205 172H151.965V202H170.205V172ZM166.965 187V115.768H136.965V187H166.965ZM151.965 130.768H170.205V100.768H151.965V130.768ZM155.205 115.768V149.752H185.205V115.768H155.205ZM180.93 139.265L176.706 134.945L155.256 155.919L159.48 160.239L180.93 139.265ZM179.26 152.409C179.979 151.04 180.65 150.515 181.238 150.199L167.044 123.769C160.721 127.165 155.952 132.272 152.703 138.455L179.26 152.409ZM181.426 150.096C182.435 149.536 183.788 149.104 185.853 149.104V119.104C179.215 119.104 172.76 120.592 166.857 123.872L181.426 150.096ZM219.673 187H204.673C204.673 195.284 211.389 202 219.673 202V187ZM219.673 119.8V104.8C211.389 104.8 204.673 111.516 204.673 119.8H219.673ZM235.321 119.8L248.131 111.996C245.408 107.527 240.554 104.8 235.321 104.8V119.8ZM263.161 165.496V180.496C268.583 180.496 273.584 177.57 276.239 172.842C278.895 168.115 278.792 162.322 275.971 157.692L263.161 165.496ZM254.905 165.496L242 157.85C239.253 162.487 239.205 168.241 241.873 172.923C244.541 177.605 249.516 180.496 254.905 180.496V165.496ZM281.977 119.8V104.8C276.678 104.8 271.773 107.596 269.072 112.154L281.977 119.8ZM297.625 119.8L312.625 119.757C312.601 111.49 305.893 104.8 297.625 104.8V119.8ZM297.817 187V202C301.803 202 305.625 200.414 308.439 197.591C311.253 194.769 312.828 190.943 312.817 186.957L297.817 187ZM280.345 187L265.345 187.071C265.384 195.327 272.089 202 280.345 202V187ZM280.153 146.392V131.392C276.163 131.392 272.337 132.982 269.521 135.811C266.706 138.639 265.134 142.472 265.153 146.463L280.153 146.392ZM283.129 146.392L296.014 154.072C298.777 149.437 298.837 143.674 296.171 138.983C293.506 134.291 288.525 131.392 283.129 131.392V146.392ZM262.873 180.376V195.376C268.158 195.376 273.052 192.595 275.758 188.056L262.873 180.376ZM254.425 180.376L241.637 188.215C244.364 192.664 249.207 195.376 254.425 195.376V180.376ZM233.593 146.392V131.392C228.164 131.392 223.158 134.326 220.505 139.064C217.852 143.801 217.967 149.602 220.805 154.231L233.593 146.392ZM237.241 146.392H252.241C252.241 138.108 245.525 131.392 237.241 131.392V146.392ZM237.241 187V202C245.525 202 252.241 195.284 252.241 187H237.241ZM234.673 187V119.8H204.673V187H234.673ZM219.673 134.8H235.321V104.8H219.673V134.8ZM222.511 127.604L250.351 173.3L275.971 157.692L248.131 111.996L222.511 127.604ZM263.161 150.496H254.905V180.496H263.161V150.496ZM267.81 173.142L294.882 127.446L269.072 112.154L242 157.85L267.81 173.142ZM281.977 134.8H297.625V104.8H281.977V134.8ZM282.625 119.843L282.817 187.043L312.817 186.957L312.625 119.757L282.625 119.843ZM297.817 172H280.345V202H297.817V172ZM295.345 186.929L295.153 146.321L265.153 146.463L265.345 187.071L295.345 186.929ZM280.153 161.392H283.129V131.392H280.153V161.392ZM270.244 138.712L249.988 172.696L275.758 188.056L296.014 154.072L270.244 138.712ZM262.873 165.376H254.425V195.376H262.873V165.376ZM267.214 172.537L246.382 138.553L220.805 154.231L241.637 188.215L267.214 172.537ZM233.593 161.392H237.241V131.392H233.593V161.392ZM222.241 146.392V187H252.241V146.392H222.241ZM237.241 172H219.673V202H237.241V172ZM310.979 205.144L315.527 190.85C315.458 190.828 315.389 190.807 315.32 190.786L310.979 205.144ZM304.259 201.784L290.822 195.116C287.708 201.392 289.353 208.987 294.784 213.413L304.259 201.784ZM310.595 189.016L320.519 177.768C317.021 174.682 312.287 173.399 307.709 174.296C303.131 175.194 299.232 178.17 297.158 182.348L310.595 189.016ZM314.339 191.224L319.805 177.255C319.692 177.211 319.579 177.168 319.465 177.127L314.339 191.224ZM323.363 190.744L314.154 178.904L314.154 178.904L323.363 190.744ZM326.339 186.52L340.102 192.484C340.164 192.341 340.224 192.197 340.281 192.053L326.339 186.52ZM328.739 180.472L316.966 171.177C316.064 172.319 315.333 173.587 314.797 174.939L328.739 180.472ZM330.179 178.648L341.952 187.943C342.833 186.826 343.552 185.59 344.085 184.272L330.179 178.648ZM347.843 134.968V119.968C341.73 119.968 336.229 123.677 333.937 129.344L347.843 134.968ZM365.219 134.968L379.074 140.716C380.994 136.088 380.476 130.806 377.693 126.638C374.91 122.471 370.23 119.968 365.219 119.968V134.968ZM342.755 189.112L328.9 183.364C328.876 183.423 328.851 183.482 328.828 183.541L342.755 189.112ZM336.515 199.576L325.633 189.252C325.543 189.347 325.453 189.444 325.365 189.542L336.515 199.576ZM328.739 204.952L323.714 190.819C323.68 190.831 323.646 190.843 323.613 190.855L328.739 204.952ZM326.435 189.208L312.62 195.052C314.544 199.6 318.584 202.91 323.422 203.902C328.26 204.894 333.276 203.441 336.835 200.017L326.435 189.208ZM303.491 134.968V119.968C298.461 119.968 293.766 122.489 290.988 126.681C288.209 130.874 287.717 136.18 289.676 140.812L303.491 134.968ZM322.211 134.968L336.129 129.375C333.846 123.692 328.336 119.968 322.211 119.968V134.968ZM339.107 177.016L349.507 187.825C353.913 183.586 355.305 177.097 353.025 171.423L339.107 177.016ZM319.331 191.488C318.232 191.488 316.981 191.313 315.527 190.85L306.431 219.438C310.609 220.767 314.926 221.488 319.331 221.488V191.488ZM315.32 190.786C313.922 190.363 313.575 190.026 313.734 190.155L294.784 213.413C298.399 216.358 302.532 218.261 306.638 219.502L315.32 190.786ZM317.695 208.452L324.031 195.684L297.158 182.348L290.822 195.116L317.695 208.452ZM300.671 200.264C303.212 202.506 306.1 204.189 309.213 205.321L319.465 177.127C319.762 177.235 320.154 177.446 320.519 177.768L300.671 200.264ZM308.873 205.193C311.874 206.367 315.165 207.088 318.659 207.088V177.088C319.337 177.088 319.748 177.233 319.805 177.255L308.873 205.193ZM318.659 207.088C322.791 207.088 327.982 206.154 332.572 202.584L314.154 178.904C316.44 177.126 318.495 177.088 318.659 177.088V207.088ZM332.572 202.584C336.387 199.617 338.676 195.774 340.102 192.484L312.576 180.556C312.484 180.768 312.504 180.667 312.709 180.377C312.917 180.081 313.371 179.513 314.154 178.904L332.572 202.584ZM340.281 192.053L342.681 186.005L314.797 174.939L312.397 180.987L340.281 192.053ZM340.512 189.767L341.952 187.943L318.406 169.353L316.966 171.177L340.512 189.767ZM344.085 184.272L361.749 140.592L333.937 129.344L316.273 173.024L344.085 184.272ZM347.843 149.968H365.219V119.968H347.843V149.968ZM351.364 129.22L328.9 183.364L356.61 194.86L379.074 140.716L351.364 129.22ZM328.828 183.541C327.478 186.916 326.282 188.568 325.633 189.252L347.397 209.9C351.483 205.592 354.448 200.268 356.682 194.683L328.828 183.541ZM325.365 189.542C324.516 190.486 323.958 190.732 323.714 190.819L333.764 219.085C339.279 217.124 343.906 213.786 347.664 209.61L325.365 189.542ZM323.613 190.855C322.671 191.198 321.302 191.488 319.331 191.488V221.488C324.271 221.488 329.175 220.754 333.865 219.049L323.613 190.855ZM340.25 183.364L317.306 129.124L289.676 140.812L312.62 195.052L340.25 183.364ZM303.491 149.968H322.211V119.968H303.491V149.968ZM308.293 140.561L325.189 182.609L353.025 171.423L336.129 129.375L308.293 140.561ZM328.707 166.207L316.035 178.399L336.835 200.017L349.507 187.825L328.707 166.207ZM56.0325 304H41.0325C41.0325 312.284 47.7482 319 56.0325 319V304ZM56.0325 236.8V221.8C47.7482 221.8 41.0325 228.516 41.0325 236.8H56.0325ZM71.6805 236.8L83.2322 227.231C80.3825 223.791 76.1477 221.8 71.6805 221.8V236.8ZM108.737 281.536V296.536C114.549 296.536 119.838 293.178 122.311 287.918C124.784 282.659 123.996 276.443 120.288 271.967L108.737 281.536ZM101.345 281.536H86.3445C86.3445 289.82 93.0602 296.536 101.345 296.536V281.536ZM101.345 236.8V221.8C93.0602 221.8 86.3445 228.516 86.3445 236.8H101.345ZM119.969 236.8H134.969C134.969 228.516 128.253 221.8 119.969 221.8V236.8ZM119.969 304V319C128.253 319 134.969 312.284 134.969 304H119.969ZM104.321 304L92.7688 313.569C95.6185 317.009 99.8533 319 104.321 319V304ZM67.2645 259.264V244.264C61.4523 244.264 56.1632 247.622 53.6901 252.882C51.217 258.141 52.0051 264.357 55.7128 268.833L67.2645 259.264ZM74.6565 259.264H89.6565C89.6565 250.98 82.9408 244.264 74.6565 244.264V259.264ZM74.6565 304V319C82.9408 319 89.6565 312.284 89.6565 304H74.6565ZM71.0325 304V236.8H41.0325V304H71.0325ZM56.0325 251.8H71.6805V221.8H56.0325V251.8ZM60.1288 246.369L97.1848 291.105L120.288 271.967L83.2322 227.231L60.1288 246.369ZM108.737 266.536H101.345V296.536H108.737V266.536ZM116.345 281.536V236.8H86.3445V281.536H116.345ZM101.345 251.8H119.969V221.8H101.345V251.8ZM104.969 236.8V304H134.969V236.8H104.969ZM119.969 289H104.321V319H119.969V289ZM115.872 294.431L78.8162 249.695L55.7128 268.833L92.7688 313.569L115.872 294.431ZM67.2645 274.264H74.6565V244.264H67.2645V274.264ZM59.6565 259.264V304H89.6565V259.264H59.6565ZM74.6565 289H56.0325V319H74.6565V289ZM164.288 304H149.288C149.288 312.284 156.004 319 164.288 319V304ZM164.288 294.304H179.288C179.288 291.895 178.708 289.521 177.597 287.384L164.288 294.304ZM163.04 291.904H148.04C148.04 294.313 148.621 296.687 149.732 298.824L163.04 291.904ZM160.352 267.424L150.161 278.43C150.302 278.561 150.445 278.688 150.59 278.813L160.352 267.424ZM144.416 266.272L148.726 280.639C148.836 280.607 148.944 280.573 149.053 280.538L144.416 266.272ZM137.888 269.536L124.451 276.203C126.458 280.247 130.179 283.173 134.583 284.167C138.987 285.162 143.605 284.12 147.156 281.331L137.888 269.536ZM131.744 257.152L123.55 244.588C117.18 248.742 114.927 257.006 118.307 263.819L131.744 257.152ZM142.304 252.736L145.942 267.288C145.995 267.275 146.047 267.262 146.1 267.248L142.304 252.736ZM174.272 256.96L164.576 268.405C164.633 268.453 164.69 268.501 164.748 268.548L174.272 256.96ZM181.28 304V319C189.565 319 196.28 312.284 196.28 304H181.28ZM138.368 302.752L144.956 289.276L138.368 302.752ZM131.744 296.992L118.912 304.759C118.961 304.84 119.011 304.921 119.062 305.002L131.744 296.992ZM131.936 280.576L119.663 271.952C119.647 271.975 119.632 271.997 119.616 272.02L131.936 280.576ZM139.52 275.2L144.582 289.32C144.66 289.292 144.738 289.263 144.816 289.234L139.52 275.2ZM164.96 273.28H179.96C179.96 264.996 173.245 258.28 164.96 258.28V273.28ZM164.96 282.784V297.784C173.245 297.784 179.96 291.068 179.96 282.784H164.96ZM148.928 284.224L139.634 272.451C139.53 272.533 139.427 272.616 139.325 272.701L148.928 284.224ZM149.024 291.904L139.73 303.677L139.73 303.677L149.024 291.904ZM159.392 291.904L167.11 304.766C167.158 304.737 167.206 304.708 167.254 304.679L159.392 291.904ZM163.04 287.296L177.102 282.073C174.922 276.204 169.325 272.306 163.064 272.296C156.802 272.286 151.194 276.167 148.995 282.029L163.04 287.296ZM165.536 294.016L180.025 297.897C180.831 294.892 180.681 291.71 179.598 288.793L165.536 294.016ZM159.872 302.176L168.057 314.746C168.081 314.731 168.104 314.716 168.127 314.7L159.872 302.176ZM179.288 304V294.304H149.288V304H179.288ZM177.597 287.384L176.349 284.984L149.732 298.824L150.98 301.224L177.597 287.384ZM178.04 291.904V274.048H148.04V291.904H178.04ZM178.04 274.048C178.04 267.842 175.955 261.041 170.114 256.035L150.59 278.813C149.65 278.007 148.913 276.965 148.469 275.872C148.055 274.853 148.04 274.148 148.04 274.048H178.04ZM170.543 256.418C164.745 251.049 157.37 250.024 152 250.024V280.024C152.945 280.024 153.136 280.13 152.826 280.041C152.472 279.939 151.37 279.55 150.161 278.43L170.543 256.418ZM152 250.024C147.811 250.024 143.72 250.726 139.78 252.006L149.053 280.538C150.233 280.154 151.197 280.024 152 280.024V250.024ZM140.106 251.905C136.053 253.121 132.121 254.991 128.621 257.741L147.156 281.331C147.239 281.265 147.66 280.959 148.726 280.639L140.106 251.905ZM151.325 262.869L145.181 250.485L118.307 263.819L124.451 276.203L151.325 262.869ZM139.938 269.716C141.236 268.87 143.149 267.986 145.942 267.288L138.666 238.184C133.268 239.534 128.141 241.594 123.55 244.588L139.938 269.716ZM146.1 267.248C149.082 266.468 151.935 266.104 154.688 266.104V236.104C149.249 236.104 143.846 236.828 138.509 238.224L146.1 267.248ZM154.688 266.104C160.989 266.104 163.584 267.564 164.576 268.405L183.969 245.515C175.744 238.548 165.284 236.104 154.688 236.104V266.104ZM164.748 268.548C164.806 268.596 166.28 269.602 166.28 275.104H196.28C196.28 264.094 193.083 253.004 183.797 245.372L164.748 268.548ZM166.28 275.104V304H196.28V275.104H166.28ZM181.28 289H164.288V319H181.28V289ZM148.928 289.864C146.397 289.864 145.268 289.429 144.956 289.276L131.78 316.228C137.228 318.891 143.14 319.864 148.928 319.864V289.864ZM144.956 289.276C144.58 289.092 144.424 288.962 144.395 288.937C144.374 288.919 144.401 288.941 144.427 288.982L119.062 305.002C122.249 310.048 126.696 313.742 131.78 316.228L144.956 289.276ZM144.577 289.225C144.565 289.205 144.563 289.199 144.565 289.205C144.568 289.211 144.569 289.215 144.568 289.21C144.566 289.205 144.559 289.178 144.552 289.122C144.545 289.066 144.536 288.971 144.536 288.832H114.536C114.536 294.412 115.938 299.846 118.912 304.759L144.577 289.225ZM144.536 288.832C144.536 288.486 144.579 288.423 144.54 288.555C144.522 288.619 144.489 288.711 144.437 288.82C144.385 288.93 144.323 289.036 144.257 289.132L119.616 272.02C116.033 277.179 114.536 283.019 114.536 288.832H144.536ZM144.209 289.2C144.107 289.346 144.003 289.465 143.912 289.555C143.822 289.644 143.763 289.688 143.755 289.693C143.742 289.702 143.967 289.541 144.582 289.32L134.458 261.08C128.874 263.082 123.501 266.491 119.663 271.952L144.209 289.2ZM144.816 289.234C145.907 288.822 148.315 288.28 152.672 288.28V258.28C146.278 258.28 139.918 259.018 134.224 261.166L144.816 289.234ZM152.672 288.28H164.96V258.28H152.672V288.28ZM149.96 273.28V282.784H179.96V273.28H149.96ZM164.96 267.784H155.168V297.784H164.96V267.784ZM155.168 267.784C151.471 267.784 145.002 268.213 139.634 272.451L158.223 295.997C156.563 297.307 155.125 297.679 154.773 297.76C154.379 297.851 154.437 297.784 155.168 297.784V267.784ZM139.325 272.701C134.5 276.722 132.2 282.353 132.2 288.064H162.2C162.2 289.09 162.008 290.511 161.311 292.059C160.602 293.635 159.581 294.872 158.531 295.747L139.325 272.701ZM132.2 288.064C132.2 294.08 134.775 299.766 139.73 303.677L158.319 280.131C159.349 280.944 160.431 282.157 161.205 283.788C161.973 285.405 162.2 286.926 162.2 288.064H132.2ZM139.73 303.677C144.41 307.373 149.746 308.344 154.016 308.344V278.344C154.062 278.344 156.07 278.355 158.319 280.131L139.73 303.677ZM154.016 308.344C158.54 308.344 163.03 307.214 167.11 304.766L151.675 279.042C152.065 278.808 152.507 278.618 152.967 278.495C153.422 278.373 153.788 278.344 154.016 278.344V308.344ZM167.254 304.679C172.094 301.7 175.295 297.338 177.085 292.563L148.995 282.029C149.095 281.763 149.327 281.26 149.792 280.673C150.268 280.072 150.867 279.538 151.531 279.129L167.254 304.679ZM148.979 292.519L151.475 299.239L179.598 288.793L177.102 282.073L148.979 292.519ZM151.047 290.135C150.961 290.456 150.924 290.412 151.078 290.191C151.15 290.087 151.243 289.976 151.351 289.87C151.459 289.765 151.554 289.693 151.618 289.652L168.127 314.7C174.325 310.615 178.218 304.645 180.025 297.897L151.047 290.135ZM151.687 289.606C152.138 289.313 151.642 289.864 148.928 289.864V319.864C155.303 319.864 162.103 318.623 168.057 314.746L151.687 289.606ZM200.474 299.968L190.46 311.137C190.496 311.169 190.532 311.201 190.568 311.233L200.474 299.968ZM194.906 240.352V225.352C186.621 225.352 179.906 232.068 179.906 240.352H194.906ZM213.146 240.352H228.146C228.146 232.068 221.43 225.352 213.146 225.352V240.352ZM214.682 289.216L203.759 299.496C203.862 299.607 203.968 299.715 204.075 299.823L214.682 289.216ZM224.186 289.12L238.328 284.122C236.762 279.688 233.206 276.246 228.724 274.823C224.242 273.4 219.353 274.162 215.515 276.88L224.186 289.12ZM228.698 301.888L237.018 314.369C242.729 310.561 245.128 303.362 242.84 296.89L228.698 301.888ZM223.034 304.096L220.092 289.387C219.958 289.414 219.824 289.443 219.691 289.473L223.034 304.096ZM187.322 267.52H172.322C172.322 275.804 179.037 282.52 187.322 282.52V267.52ZM187.322 253.888V238.888C179.037 238.888 172.322 245.604 172.322 253.888H187.322ZM225.05 253.888H240.05C240.05 245.604 233.334 238.888 225.05 238.888V253.888ZM225.05 267.52V282.52C233.334 282.52 240.05 275.804 240.05 267.52H225.05ZM216.026 289.864C211.739 289.864 210.526 288.833 210.379 288.703L190.568 311.233C197.845 317.631 207 319.864 216.026 319.864V289.864ZM210.487 288.799C210.487 288.799 210.492 288.804 210.499 288.813C210.506 288.821 210.508 288.824 210.503 288.817C210.499 288.81 210.439 288.721 210.357 288.501C210.185 288.036 209.906 286.964 209.906 284.992H179.906C179.906 294.409 182.607 304.095 190.46 311.137L210.487 288.799ZM209.906 284.992V240.352H179.906V284.992H209.906ZM194.906 255.352H213.146V225.352H194.906V255.352ZM198.146 240.352V284.8H228.146V240.352H198.146ZM198.146 284.8C198.146 289.506 199.519 294.992 203.759 299.496L225.604 278.936C226.601 279.994 227.29 281.2 227.697 282.368C228.086 283.486 228.146 284.362 228.146 284.8H198.146ZM204.075 299.823C208.22 303.968 213.497 305.752 218.618 305.752V275.752C219.431 275.752 220.585 275.886 221.887 276.394C223.218 276.914 224.376 277.697 225.288 278.609L204.075 299.823ZM218.618 305.752C223.399 305.752 228.405 304.513 232.856 301.36L215.515 276.88C216.139 276.438 216.802 276.131 217.422 275.95C218.024 275.773 218.453 275.752 218.618 275.752V305.752ZM210.043 294.118L214.555 306.886L242.84 296.89L238.328 284.122L210.043 294.118ZM220.377 289.407C220.592 289.264 220.714 289.22 220.681 289.232C220.645 289.247 220.463 289.313 220.092 289.387L225.975 318.805C229.695 318.061 233.515 316.704 237.018 314.369L220.377 289.407ZM219.691 289.473C218.61 289.72 217.398 289.864 216.026 289.864V319.864C219.517 319.864 222.977 319.496 226.376 318.719L219.691 289.473ZM202.322 267.52V253.888H172.322V267.52H202.322ZM187.322 268.888H225.05V238.888H187.322V268.888ZM210.05 253.888V267.52H240.05V253.888H210.05ZM225.05 252.52H187.322V282.52H225.05V252.52ZM235.731 304H220.731C220.731 312.284 227.447 319 235.731 319V304ZM235.731 251.968V236.968C227.447 236.968 220.731 243.684 220.731 251.968H235.731ZM253.971 251.968H268.971C268.971 243.684 262.255 236.968 253.971 236.968V251.968ZM253.971 304V319C262.255 319 268.971 312.284 268.971 304H253.971ZM236.787 243.424L246.86 232.309L246.86 232.309L236.787 243.424ZM236.787 229.6L246.86 240.715L246.86 240.715L236.787 229.6ZM252.915 229.504L243.037 240.793C243.105 240.852 243.173 240.91 243.242 240.968L252.915 229.504ZM252.915 243.424L263.162 254.378C263.166 254.374 263.17 254.371 263.174 254.367L252.915 243.424ZM250.731 304V251.968H220.731V304H250.731ZM235.731 266.968H253.971V236.968H235.731V266.968ZM238.971 251.968V304H268.971V251.968H238.971ZM253.971 289H235.731V319H253.971V289ZM244.851 231.208C244.576 231.208 244.761 231.17 245.234 231.333C245.749 231.511 246.339 231.837 246.86 232.309L226.714 254.539C232.062 259.385 238.6 261.208 244.851 261.208V231.208ZM246.86 232.309C247.234 232.648 247.775 233.278 248.19 234.212C248.606 235.147 248.715 235.983 248.715 236.512H218.715C218.715 243.519 221.544 249.853 226.714 254.539L246.86 232.309ZM248.715 236.512C248.715 237.041 248.606 237.877 248.19 238.812C247.775 239.746 247.234 240.376 246.86 240.715L226.714 218.485C221.544 223.171 218.715 229.505 218.715 236.512H248.715ZM246.86 240.715C246.339 241.187 245.749 241.513 245.234 241.691C244.761 241.854 244.576 241.816 244.851 241.816V211.816C238.6 211.816 232.062 213.639 226.714 218.485L246.86 240.715ZM244.851 241.816C245.177 241.816 245.045 241.86 244.62 241.718C244.153 241.563 243.574 241.262 243.037 240.793L262.793 218.215C257.435 213.528 250.968 211.816 244.851 211.816V241.816ZM243.242 240.968C242.724 240.532 242.065 239.783 241.577 238.716C241.094 237.661 240.987 236.746 240.987 236.224H270.987C270.987 229.19 268.118 222.705 262.588 218.04L243.242 240.968ZM240.987 236.224C240.987 235.852 241.062 235.143 241.422 234.297C241.787 233.443 242.28 232.834 242.656 232.481L263.174 254.367C268.334 249.529 270.987 243.129 270.987 236.224H240.987ZM242.668 232.47C243.285 231.892 243.964 231.524 244.516 231.333C245.017 231.16 245.193 231.208 244.851 231.208V261.208C251.059 261.208 257.753 259.439 263.162 254.378L242.668 232.47ZM280.321 304L266.449 309.707C268.762 315.33 274.241 319 280.321 319V304ZM258.913 251.968V236.968C253.909 236.968 249.235 239.463 246.451 243.62C243.666 247.777 243.137 253.048 245.041 257.675L258.913 251.968ZM277.633 251.968L291.594 246.482C289.338 240.742 283.8 236.968 277.633 236.968V251.968ZM294.721 295.456V310.456C299.682 310.456 304.322 308.003 307.116 303.903C309.91 299.804 310.496 294.588 308.682 289.97L294.721 295.456ZM285.313 295.456L271.448 289.732C269.537 294.36 270.062 299.636 272.846 303.797C275.63 307.958 280.306 310.456 285.313 310.456V295.456ZM303.265 251.968V236.968C297.191 236.968 291.717 240.63 289.4 246.244L303.265 251.968ZM320.641 251.968L334.503 257.697C336.416 253.069 335.893 247.792 333.109 243.629C330.326 239.467 325.648 236.968 320.641 236.968V251.968ZM299.137 304V319C305.208 319 310.681 315.34 312.999 309.729L299.137 304ZM294.193 298.293L272.785 246.261L245.041 257.675L266.449 309.707L294.193 298.293ZM258.913 266.968H277.633V236.968H258.913V266.968ZM263.672 257.454L280.76 300.942L308.682 289.97L291.594 246.482L263.672 257.454ZM294.721 280.456H285.313V310.456H294.721V280.456ZM299.178 301.18L317.13 257.692L289.4 246.244L271.448 289.732L299.178 301.18ZM303.265 266.968H320.641V236.968H303.265V266.968ZM306.778 246.239L285.274 298.271L312.999 309.729L334.503 257.697L306.778 246.239ZM299.137 289H280.321V319H299.137V289ZM335.086 301.408L328.154 314.71C328.228 314.749 328.303 314.787 328.378 314.824L335.086 301.408ZM324.43 291.808L311.621 299.614C311.669 299.692 311.717 299.77 311.767 299.848L324.43 291.808ZM324.334 264.064L311.525 256.258C311.513 256.278 311.501 256.297 311.489 256.317L324.334 264.064ZM334.606 254.56L341.47 267.897C341.522 267.871 341.573 267.844 341.624 267.817L334.606 254.56ZM363.31 254.272L356.602 267.688C356.656 267.716 356.711 267.743 356.766 267.769L363.31 254.272ZM373.39 263.392L386.144 255.497L386.144 255.497L373.39 263.392ZM377.038 280.288L391.994 281.438L391.994 281.438L377.038 280.288ZM376.846 282.592V297.592C384.604 297.592 391.082 291.676 391.784 283.95L376.846 282.592ZM335.662 282.592H320.662C320.662 290.876 327.377 297.592 335.662 297.592V282.592ZM335.662 272.992V257.992C327.377 257.992 320.662 264.708 320.662 272.992H335.662ZM367.15 272.992L372.586 286.972C379.313 284.356 383.223 277.32 381.893 270.226C380.562 263.132 374.367 257.992 367.15 257.992V272.992ZM360.238 275.68L345.243 275.275C345.108 280.296 347.495 285.053 351.602 287.945C355.71 290.837 360.992 291.481 365.674 289.66L360.238 275.68ZM358.894 269.536L345.577 276.441C345.644 276.568 345.712 276.695 345.781 276.821L358.894 269.536ZM355.054 265.504L347.336 278.366C347.41 278.41 347.484 278.454 347.558 278.497L355.054 265.504ZM343.63 265.504L336.134 252.511C336.06 252.554 335.986 252.598 335.912 252.642L343.63 265.504ZM339.886 269.632L353.202 276.537C353.236 276.471 353.269 276.406 353.302 276.34L339.886 269.632ZM340.078 285.184L326.944 292.43C327.007 292.544 327.071 292.657 327.137 292.77L340.078 285.184ZM344.686 289.504L337.806 302.833C337.921 302.892 338.036 302.95 338.152 303.006L344.686 289.504ZM358.318 289.888L363.803 303.849C363.886 303.816 363.97 303.783 364.053 303.748L358.318 289.888ZM363.79 286.432L374.602 276.035C369.091 270.304 360.065 269.868 354.028 275.043L363.79 286.432ZM373.39 296.416L384.501 306.493C389.799 300.651 389.669 291.704 384.202 286.019L373.39 296.416ZM364.174 302.752L369.575 316.746C369.646 316.719 369.716 316.691 369.787 316.662L364.174 302.752ZM351.214 289.864C346.954 289.864 343.955 289.072 341.794 287.992L328.378 314.824C335.433 318.352 343.186 319.864 351.214 319.864V289.864ZM342.018 288.106C339.637 286.865 338.136 285.41 337.093 283.768L311.767 299.848C315.844 306.27 321.446 311.215 328.154 314.71L342.018 288.106ZM337.239 284.002C336.291 282.447 335.686 280.549 335.686 277.888H305.686C305.686 285.595 307.576 292.977 311.621 299.614L337.239 284.002ZM335.686 277.888C335.686 275.15 336.296 273.273 337.178 271.811L311.489 256.317C307.507 262.919 305.686 270.258 305.686 277.888H335.686ZM337.143 271.87C338.173 270.179 339.518 268.902 341.47 267.897L327.741 241.223C320.99 244.698 315.486 249.757 311.525 256.258L337.143 271.87ZM341.624 267.817C343.594 266.774 346.039 266.104 349.294 266.104V236.104C341.668 236.104 334.321 237.738 327.587 241.303L341.624 267.817ZM349.294 266.104C352.285 266.104 354.632 266.704 356.602 267.688L370.018 240.856C363.539 237.616 356.543 236.104 349.294 236.104V266.104ZM356.766 267.769C358.403 268.563 359.621 269.648 360.636 271.287L386.144 255.497C382.167 249.072 376.664 244.077 369.854 240.775L356.766 267.769ZM360.636 271.287C361.376 272.484 362.134 274.509 362.134 278.08H392.134C392.134 270.131 390.395 262.364 386.144 255.497L360.636 271.287ZM362.134 278.08C362.134 278.241 362.125 278.581 362.082 279.138L391.994 281.438C392.079 280.331 392.134 279.199 392.134 278.08H362.134ZM362.082 279.138C362.022 279.912 361.964 280.61 361.907 281.234L391.784 283.95C391.855 283.166 391.925 282.328 391.994 281.438L362.082 279.138ZM376.846 267.592H335.662V297.592H376.846V267.592ZM350.662 282.592V272.992H320.662V282.592H350.662ZM335.662 287.992H367.15V257.992H335.662V287.992ZM361.713 259.012L354.801 261.7L365.674 289.66L372.586 286.972L361.713 259.012ZM375.232 276.085C375.354 271.566 374.508 266.755 372.006 262.251L345.781 276.821C345.51 276.332 345.366 275.891 345.296 275.573C345.23 275.27 345.247 275.149 345.243 275.275L375.232 276.085ZM372.21 262.631C370.014 258.395 366.73 254.923 362.55 252.511L347.558 278.497C347.191 278.285 346.784 277.98 346.4 277.577C346.017 277.175 345.749 276.772 345.577 276.441L372.21 262.631ZM362.771 252.642C358.476 250.065 353.827 249.064 349.39 249.064V279.064C349.375 279.064 349.137 279.062 348.742 278.962C348.334 278.858 347.842 278.67 347.336 278.366L362.771 252.642ZM349.39 249.064C344.938 249.064 340.367 250.069 336.134 252.511L351.126 278.497C350.714 278.734 350.307 278.888 349.956 278.976C349.615 279.061 349.408 279.064 349.39 279.064V249.064ZM335.912 252.642C331.684 255.178 328.543 258.777 326.469 262.924L353.302 276.34C353.186 276.572 352.968 276.932 352.605 277.333C352.236 277.74 351.803 278.093 351.347 278.366L335.912 252.642ZM326.569 262.727C324.353 267.003 323.542 271.519 323.542 275.776H353.542C353.542 275.534 353.565 275.515 353.531 275.669C353.495 275.833 353.405 276.145 353.202 276.537L326.569 262.727ZM323.542 275.776V278.56H353.542V275.776H323.542ZM323.542 278.56C323.542 283.13 324.466 287.938 326.944 292.43L353.211 277.938C353.413 278.302 353.503 278.597 353.538 278.748C353.57 278.887 353.542 278.844 353.542 278.56H323.542ZM327.137 292.77C329.717 297.171 333.399 300.559 337.806 302.833L351.565 276.175C351.73 276.26 352.003 276.43 352.305 276.713C352.61 276.999 352.85 277.312 353.018 277.598L327.137 292.77ZM338.152 303.006C342.615 305.166 347.323 305.944 351.79 305.944V275.944C350.752 275.944 350.724 275.762 351.219 276.002L338.152 303.006ZM351.79 305.944C355.643 305.944 359.792 305.425 363.803 303.849L352.833 275.927C353.065 275.836 353.126 275.843 352.946 275.872C352.765 275.902 352.392 275.944 351.79 275.944V305.944ZM364.053 303.748C367.604 302.279 370.762 300.212 373.552 297.821L354.028 275.043C353.234 275.724 352.744 275.961 352.582 276.028L364.053 303.748ZM352.977 296.829L362.577 306.813L384.202 286.019L374.602 276.035L352.977 296.829ZM362.279 286.339C361.392 287.317 360.237 288.165 358.561 288.842L369.787 316.662C375.407 314.395 380.396 311.019 384.501 306.493L362.279 286.339ZM358.773 288.758C357.251 289.345 354.847 289.864 351.214 289.864V319.864C357.564 319.864 363.8 318.975 369.575 316.746L358.773 288.758Z" fill="#C2433E" mask="url(#path-1-outside-1_155_42)"/>
</svg>
