<svg width="725" height="200" viewBox="0 0 725 200" fill="none" xmlns="http://www.w3.org/2000/svg">
<mask id="path-1-outside-1_155_42" maskUnits="userSpaceOnUse" x="36" y="41" width="655" height="128" fill="black">
<rect fill="white" x="36" y="41" width="655" height="128"/>
<path d="M88.8424 135.344C83.4664 135.344 78.5064 134.48 73.9624 132.752C69.4184 131.024 65.4504 128.592 62.0584 125.456C58.7304 122.256 56.1384 118.544 54.2824 114.32C52.4264 110.096 51.4984 105.456 51.4984 100.4C51.4984 95.344 52.4264 90.704 54.2824 86.48C56.1384 82.256 58.7304 78.576 62.0584 75.44C65.4504 72.24 69.4184 69.776 73.9624 68.048C78.5064 66.32 83.4664 65.456 88.8424 65.456C94.2824 65.456 99.2424 66.32 103.722 68.048C108.266 69.776 112.202 72.24 115.53 75.44C118.858 78.576 121.45 82.256 123.306 86.48C125.226 90.704 126.186 95.344 126.186 100.4C126.186 105.456 125.226 110.128 123.306 114.416C121.45 118.64 118.858 122.32 115.53 125.456C112.202 128.592 108.266 131.024 103.722 132.752C99.2424 134.48 94.2824 135.344 88.8424 135.344ZM88.8424 119.6C91.4024 119.6 93.7704 119.152 95.9464 118.256C98.1864 117.36 100.106 116.08 101.706 114.416C103.37 112.688 104.65 110.64 105.546 108.272C106.506 105.904 106.986 103.28 106.986 100.4C106.986 97.456 106.506 94.832 105.546 92.528C104.65 90.16 103.37 88.144 101.706 86.48C100.106 84.752 98.1864 83.44 95.9464 82.544C93.7704 81.648 91.4024 81.2 88.8424 81.2C86.2824 81.2 83.8824 81.648 81.6424 82.544C79.4664 83.44 77.5464 84.752 75.8824 86.48C74.2824 88.144 73.0024 90.16 72.0424 92.528C71.1464 94.832 70.6984 97.456 70.6984 100.4C70.6984 103.28 71.1464 105.904 72.0424 108.272C73.0024 110.64 74.2824 112.688 75.8824 114.416C77.5464 116.08 79.4664 117.36 81.6424 118.256C83.8824 119.152 86.2824 119.6 88.8424 119.6ZM169.166 81.104C173.198 81.104 176.846 81.936 180.11 83.6C183.374 85.2 185.934 87.696 187.79 91.088C189.71 94.48 190.67 98.864 190.67 104.24V134H172.43V107.216C172.43 103.504 171.662 100.816 170.126 99.152C168.654 97.424 166.574 96.56 163.886 96.56C161.966 96.56 160.206 97.008 158.606 97.904C157.006 98.736 155.758 100.048 154.862 101.84C153.966 103.632 153.518 105.968 153.518 108.848V134H135.278V62.768H153.518V96.752L149.294 92.432C151.278 88.656 153.998 85.84 157.454 83.984C160.91 82.064 164.814 81.104 169.166 81.104ZM202.986 134V66.8H218.634L246.474 112.496H238.218L265.29 66.8H280.938L281.13 134H263.658L263.466 93.392H266.442L246.186 127.376H237.738L216.906 93.392H220.554V134H202.986ZM302.643 153.488C299.891 153.488 297.107 153.04 294.291 152.144C291.539 151.312 289.299 150.192 287.571 148.784L293.907 136.016C294.995 136.976 296.243 137.712 297.651 138.224C299.123 138.8 300.563 139.088 301.971 139.088C303.955 139.088 305.523 138.64 306.675 137.744C307.827 136.848 308.819 135.44 309.651 133.52L312.051 127.472L313.491 125.648L331.155 81.968H348.531L326.067 136.112C324.275 140.592 322.195 144.08 319.827 146.576C317.523 149.136 314.931 150.928 312.051 151.952C309.235 152.976 306.099 153.488 302.643 153.488ZM309.747 136.208L286.803 81.968H305.523L322.419 124.016L309.747 136.208ZM354.111 134V66.8H369.759L406.815 111.536H399.423V66.8H418.047V134H402.399L365.343 89.264H372.735V134H354.111ZM462.366 134V124.304L461.118 121.904V104.048C461.118 101.168 460.222 98.96 458.43 97.424C456.702 95.824 453.918 95.024 450.078 95.024C447.582 95.024 445.054 95.44 442.494 96.272C439.934 97.04 437.758 98.128 435.966 99.536L429.822 87.152C432.766 85.232 436.286 83.76 440.382 82.736C444.542 81.648 448.67 81.104 452.766 81.104C461.214 81.104 467.742 83.056 472.35 86.96C477.022 90.8 479.358 96.848 479.358 105.104V134H462.366ZM447.006 134.864C442.846 134.864 439.326 134.16 436.446 132.752C433.566 131.344 431.358 129.424 429.822 126.992C428.35 124.56 427.614 121.84 427.614 118.832C427.614 115.632 428.414 112.88 430.014 110.576C431.678 108.208 434.206 106.416 437.598 105.2C440.99 103.92 445.374 103.28 450.75 103.28H463.038V112.784H453.246C450.302 112.784 448.222 113.264 447.006 114.224C445.854 115.184 445.278 116.464 445.278 118.064C445.278 119.664 445.886 120.944 447.102 121.904C448.318 122.864 449.982 123.344 452.094 123.344C454.078 123.344 455.87 122.864 457.47 121.904C459.134 120.88 460.35 119.344 461.118 117.296L463.614 124.016C462.654 127.6 460.766 130.32 457.95 132.176C455.198 133.968 451.55 134.864 447.006 134.864ZM514.104 134.864C507.448 134.864 502.264 133.232 498.552 129.968C494.84 126.64 492.984 121.648 492.984 114.992V70.352H511.224V114.8C511.224 116.656 511.736 118.128 512.76 119.216C513.784 120.24 515.096 120.752 516.696 120.752C518.872 120.752 520.728 120.208 522.264 119.12L526.776 131.888C525.24 132.912 523.352 133.648 521.112 134.096C518.872 134.608 516.536 134.864 514.104 134.864ZM485.4 97.52V83.888H523.128V97.52H485.4ZM533.809 134V81.968H552.049V134H533.809ZM542.929 76.208C539.601 76.208 536.913 75.28 534.865 73.424C532.817 71.568 531.793 69.264 531.793 66.512C531.793 63.76 532.817 61.456 534.865 59.6C536.913 57.744 539.601 56.816 542.929 56.816C546.257 56.816 548.945 57.712 550.993 59.504C553.041 61.232 554.065 63.472 554.065 66.224C554.065 69.104 553.041 71.504 550.993 73.424C549.009 75.28 546.321 76.208 542.929 76.208ZM578.399 134L556.991 81.968H575.711L592.799 125.456H583.391L601.343 81.968H618.719L597.215 134H578.399ZM649.292 134.864C643.148 134.864 637.772 133.712 633.164 131.408C628.62 129.04 625.068 125.84 622.508 121.808C620.012 117.712 618.764 113.072 618.764 107.888C618.764 102.704 619.98 98.096 622.412 94.064C624.908 89.968 628.332 86.8 632.684 84.56C637.036 82.256 641.932 81.104 647.372 81.104C652.492 81.104 657.164 82.16 661.388 84.272C665.612 86.32 668.972 89.36 671.468 93.392C673.964 97.424 675.212 102.32 675.212 108.08C675.212 108.72 675.18 109.456 675.116 110.288C675.052 111.12 674.988 111.888 674.924 112.592H633.74V102.992H665.228L658.316 105.68C658.38 103.312 657.932 101.264 656.972 99.536C656.076 97.808 654.796 96.464 653.132 95.504C651.532 94.544 649.644 94.064 647.468 94.064C645.292 94.064 643.372 94.544 641.708 95.504C640.108 96.464 638.86 97.84 637.964 99.632C637.068 101.36 636.62 103.408 636.62 105.776V108.56C636.62 111.12 637.132 113.328 638.156 115.184C639.244 117.04 640.78 118.48 642.764 119.504C644.748 120.464 647.116 120.944 649.868 120.944C652.428 120.944 654.604 120.592 656.396 119.888C658.252 119.12 660.076 117.968 661.868 116.432L671.468 126.416C668.972 129.168 665.9 131.28 662.252 132.752C658.604 134.16 654.284 134.864 649.292 134.864Z"/>
</mask>
<path d="M88.8424 135.344C83.4664 135.344 78.5064 134.48 73.9624 132.752C69.4184 131.024 65.4504 128.592 62.0584 125.456C58.7304 122.256 56.1384 118.544 54.2824 114.32C52.4264 110.096 51.4984 105.456 51.4984 100.4C51.4984 95.344 52.4264 90.704 54.2824 86.48C56.1384 82.256 58.7304 78.576 62.0584 75.44C65.4504 72.24 69.4184 69.776 73.9624 68.048C78.5064 66.32 83.4664 65.456 88.8424 65.456C94.2824 65.456 99.2424 66.32 103.722 68.048C108.266 69.776 112.202 72.24 115.53 75.44C118.858 78.576 121.45 82.256 123.306 86.48C125.226 90.704 126.186 95.344 126.186 100.4C126.186 105.456 125.226 110.128 123.306 114.416C121.45 118.64 118.858 122.32 115.53 125.456C112.202 128.592 108.266 131.024 103.722 132.752C99.2424 134.48 94.2824 135.344 88.8424 135.344ZM88.8424 119.6C91.4024 119.6 93.7704 119.152 95.9464 118.256C98.1864 117.36 100.106 116.08 101.706 114.416C103.37 112.688 104.65 110.64 105.546 108.272C106.506 105.904 106.986 103.28 106.986 100.4C106.986 97.456 106.506 94.832 105.546 92.528C104.65 90.16 103.37 88.144 101.706 86.48C100.106 84.752 98.1864 83.44 95.9464 82.544C93.7704 81.648 91.4024 81.2 88.8424 81.2C86.2824 81.2 83.8824 81.648 81.6424 82.544C79.4664 83.44 77.5464 84.752 75.8824 86.48C74.2824 88.144 73.0024 90.16 72.0424 92.528C71.1464 94.832 70.6984 97.456 70.6984 100.4C70.6984 103.28 71.1464 105.904 72.0424 108.272C73.0024 110.64 74.2824 112.688 75.8824 114.416C77.5464 116.08 79.4664 117.36 81.6424 118.256C83.8824 119.152 86.2824 119.6 88.8424 119.6ZM169.166 81.104C173.198 81.104 176.846 81.936 180.11 83.6C183.374 85.2 185.934 87.696 187.79 91.088C189.71 94.48 190.67 98.864 190.67 104.24V134H172.43V107.216C172.43 103.504 171.662 100.816 170.126 99.152C168.654 97.424 166.574 96.56 163.886 96.56C161.966 96.56 160.206 97.008 158.606 97.904C157.006 98.736 155.758 100.048 154.862 101.84C153.966 103.632 153.518 105.968 153.518 108.848V134H135.278V62.768H153.518V96.752L149.294 92.432C151.278 88.656 153.998 85.84 157.454 83.984C160.91 82.064 164.814 81.104 169.166 81.104ZM202.986 134V66.8H218.634L246.474 112.496H238.218L265.29 66.8H280.938L281.13 134H263.658L263.466 93.392H266.442L246.186 127.376H237.738L216.906 93.392H220.554V134H202.986ZM302.643 153.488C299.891 153.488 297.107 153.04 294.291 152.144C291.539 151.312 289.299 150.192 287.571 148.784L293.907 136.016C294.995 136.976 296.243 137.712 297.651 138.224C299.123 138.8 300.563 139.088 301.971 139.088C303.955 139.088 305.523 138.64 306.675 137.744C307.827 136.848 308.819 135.44 309.651 133.52L312.051 127.472L313.491 125.648L331.155 81.968H348.531L326.067 136.112C324.275 140.592 322.195 144.08 319.827 146.576C317.523 149.136 314.931 150.928 312.051 151.952C309.235 152.976 306.099 153.488 302.643 153.488ZM309.747 136.208L286.803 81.968H305.523L322.419 124.016L309.747 136.208ZM354.111 134V66.8H369.759L406.815 111.536H399.423V66.8H418.047V134H402.399L365.343 89.264H372.735V134H354.111ZM462.366 134V124.304L461.118 121.904V104.048C461.118 101.168 460.222 98.96 458.43 97.424C456.702 95.824 453.918 95.024 450.078 95.024C447.582 95.024 445.054 95.44 442.494 96.272C439.934 97.04 437.758 98.128 435.966 99.536L429.822 87.152C432.766 85.232 436.286 83.76 440.382 82.736C444.542 81.648 448.67 81.104 452.766 81.104C461.214 81.104 467.742 83.056 472.35 86.96C477.022 90.8 479.358 96.848 479.358 105.104V134H462.366ZM447.006 134.864C442.846 134.864 439.326 134.16 436.446 132.752C433.566 131.344 431.358 129.424 429.822 126.992C428.35 124.56 427.614 121.84 427.614 118.832C427.614 115.632 428.414 112.88 430.014 110.576C431.678 108.208 434.206 106.416 437.598 105.2C440.99 103.92 445.374 103.28 450.75 103.28H463.038V112.784H453.246C450.302 112.784 448.222 113.264 447.006 114.224C445.854 115.184 445.278 116.464 445.278 118.064C445.278 119.664 445.886 120.944 447.102 121.904C448.318 122.864 449.982 123.344 452.094 123.344C454.078 123.344 455.87 122.864 457.47 121.904C459.134 120.88 460.35 119.344 461.118 117.296L463.614 124.016C462.654 127.6 460.766 130.32 457.95 132.176C455.198 133.968 451.55 134.864 447.006 134.864ZM514.104 134.864C507.448 134.864 502.264 133.232 498.552 129.968C494.84 126.64 492.984 121.648 492.984 114.992V70.352H511.224V114.8C511.224 116.656 511.736 118.128 512.76 119.216C513.784 120.24 515.096 120.752 516.696 120.752C518.872 120.752 520.728 120.208 522.264 119.12L526.776 131.888C525.24 132.912 523.352 133.648 521.112 134.096C518.872 134.608 516.536 134.864 514.104 134.864ZM485.4 97.52V83.888H523.128V97.52H485.4ZM533.809 134V81.968H552.049V134H533.809ZM542.929 76.208C539.601 76.208 536.913 75.28 534.865 73.424C532.817 71.568 531.793 69.264 531.793 66.512C531.793 63.76 532.817 61.456 534.865 59.6C536.913 57.744 539.601 56.816 542.929 56.816C546.257 56.816 548.945 57.712 550.993 59.504C553.041 61.232 554.065 63.472 554.065 66.224C554.065 69.104 553.041 71.504 550.993 73.424C549.009 75.28 546.321 76.208 542.929 76.208ZM578.399 134L556.991 81.968H575.711L592.799 125.456H583.391L601.343 81.968H618.719L597.215 134H578.399ZM649.292 134.864C643.148 134.864 637.772 133.712 633.164 131.408C628.62 129.04 625.068 125.84 622.508 121.808C620.012 117.712 618.764 113.072 618.764 107.888C618.764 102.704 619.98 98.096 622.412 94.064C624.908 89.968 628.332 86.8 632.684 84.56C637.036 82.256 641.932 81.104 647.372 81.104C652.492 81.104 657.164 82.16 661.388 84.272C665.612 86.32 668.972 89.36 671.468 93.392C673.964 97.424 675.212 102.32 675.212 108.08C675.212 108.72 675.18 109.456 675.116 110.288C675.052 111.12 674.988 111.888 674.924 112.592H633.74V102.992H665.228L658.316 105.68C658.38 103.312 657.932 101.264 656.972 99.536C656.076 97.808 654.796 96.464 653.132 95.504C651.532 94.544 649.644 94.064 647.468 94.064C645.292 94.064 643.372 94.544 641.708 95.504C640.108 96.464 638.86 97.84 637.964 99.632C637.068 101.36 636.62 103.408 636.62 105.776V108.56C636.62 111.12 637.132 113.328 638.156 115.184C639.244 117.04 640.78 118.48 642.764 119.504C644.748 120.464 647.116 120.944 649.868 120.944C652.428 120.944 654.604 120.592 656.396 119.888C658.252 119.12 660.076 117.968 661.868 116.432L671.468 126.416C668.972 129.168 665.9 131.28 662.252 132.752C658.604 134.16 654.284 134.864 649.292 134.864Z" fill="white"/>
<path d="M73.9624 132.752L68.6307 146.772L68.6307 146.772L73.9624 132.752ZM62.0584 125.456L51.6617 136.268C51.7324 136.336 51.8036 136.404 51.8755 136.47L62.0584 125.456ZM54.2824 114.32L40.5496 120.354L40.5496 120.354L54.2824 114.32ZM54.2824 86.48L40.5496 80.4459L40.5496 80.4459L54.2824 86.48ZM62.0584 75.44L72.3454 86.3568L72.3517 86.3509L62.0584 75.44ZM73.9624 68.048L68.6307 54.0276L68.6307 54.0276L73.9624 68.048ZM103.722 68.048L98.3243 82.043C98.3464 82.0515 98.3685 82.06 98.3907 82.0684L103.722 68.048ZM115.53 75.44L105.134 86.2525C105.17 86.2875 105.207 86.3222 105.243 86.3568L115.53 75.44ZM123.306 86.48L109.574 92.5141C109.599 92.5719 109.625 92.6296 109.651 92.687L123.306 86.48ZM123.306 114.416L109.616 108.286C109.602 108.318 109.588 108.35 109.574 108.382L123.306 114.416ZM115.53 125.456L125.817 136.373L125.817 136.373L115.53 125.456ZM103.722 132.752L98.3907 118.732C98.3685 118.74 98.3464 118.748 98.3243 118.757L103.722 132.752ZM95.9464 118.256L90.3755 104.329C90.3286 104.348 90.2818 104.367 90.2351 104.386L95.9464 118.256ZM101.706 114.416L90.9016 104.011L90.8939 104.019L101.706 114.416ZM105.546 108.272L91.6453 102.636C91.6013 102.745 91.5585 102.854 91.5171 102.964L105.546 108.272ZM105.546 92.528L91.5171 97.8364C91.5756 97.991 91.6366 98.1446 91.7002 98.2972L105.546 92.528ZM101.706 86.48L90.7 96.6711C90.8306 96.8122 90.9639 96.9507 91.0998 97.0866L101.706 86.48ZM95.9464 82.544L90.2351 96.4142C90.2818 96.4334 90.3286 96.4524 90.3755 96.4711L95.9464 82.544ZM81.6424 82.544L76.0715 68.6168C76.0246 68.6356 75.9778 68.6546 75.9311 68.6738L81.6424 82.544ZM75.8824 86.48L65.0776 76.0754L65.0699 76.0834L75.8824 86.48ZM72.0424 92.528L58.1413 86.8924C58.1145 86.9585 58.0882 87.0248 58.0623 87.0913L72.0424 92.528ZM72.0424 108.272L58.0131 113.58C58.0545 113.69 58.0973 113.799 58.1413 113.908L72.0424 108.272ZM75.8824 114.416L64.876 124.607C65.0066 124.748 65.1399 124.887 65.2758 125.023L75.8824 114.416ZM81.6424 118.256L75.9311 132.126C75.9778 132.145 76.0246 132.164 76.0715 132.183L81.6424 118.256ZM88.8424 120.344C85.0959 120.344 81.964 119.747 79.2941 118.732L68.6307 146.772C75.0487 149.213 81.8369 150.344 88.8424 150.344V120.344ZM79.2941 118.732C76.4493 117.65 74.1504 116.207 72.2412 114.442L51.8755 136.47C56.7503 140.977 62.3875 144.398 68.6307 146.772L79.2941 118.732ZM72.455 114.644C70.5398 112.802 69.0817 110.713 68.0152 108.286L40.5496 120.354C43.1951 126.375 46.921 131.71 51.6617 136.268L72.455 114.644ZM68.0152 108.286C67.072 106.139 66.4984 103.579 66.4984 100.4H36.4984C36.4984 107.333 37.7807 114.053 40.5496 120.354L68.0152 108.286ZM66.4984 100.4C66.4984 97.2207 67.072 94.6606 68.0152 92.5141L40.5496 80.4459C37.7807 86.7474 36.4984 93.4673 36.4984 100.4H66.4984ZM68.0152 92.5141C69.0692 90.1153 70.4953 88.1002 72.3454 86.3568L51.7714 64.5232C46.9654 69.0518 43.2076 74.3967 40.5496 80.4459L68.0152 92.5141ZM72.3517 86.3509C74.2494 84.5606 76.5124 83.1263 79.2941 82.0684L68.6307 54.0276C62.3244 56.4257 56.6514 59.9193 51.7651 64.5291L72.3517 86.3509ZM79.2941 82.0684C81.964 81.0531 85.0959 80.456 88.8424 80.456V50.456C81.8369 50.456 75.0487 51.5869 68.6307 54.0276L79.2941 82.0684ZM88.8424 80.456C92.6799 80.456 95.7798 81.0616 98.3243 82.043L109.12 54.053C102.705 51.5784 95.8849 50.456 88.8424 50.456V80.456ZM98.3907 82.0684C101.149 83.1175 103.337 84.5253 105.134 86.2525L125.927 64.6275C121.067 59.9547 115.383 56.4345 109.054 54.0276L98.3907 82.0684ZM105.243 86.3568C107.093 88.1002 108.52 90.1153 109.574 92.5141L137.039 80.4459C134.381 74.3967 130.623 69.0518 125.817 64.5232L105.243 86.3568ZM109.651 92.687C110.608 94.7922 111.186 97.291 111.186 100.4H141.186C141.186 93.397 139.845 86.6157 136.962 80.273L109.651 92.687ZM111.186 100.4C111.186 103.506 110.608 106.07 109.616 108.286L136.997 120.546C139.844 114.186 141.186 107.406 141.186 100.4H111.186ZM109.574 108.382C108.52 110.781 107.093 112.796 105.243 114.539L125.817 136.373C130.623 131.844 134.381 126.499 137.039 120.45L109.574 108.382ZM105.243 114.539C103.436 116.242 101.213 117.658 98.3907 118.732L109.054 146.772C115.32 144.39 120.968 140.942 125.817 136.373L105.243 114.539ZM98.3243 118.757C95.7798 119.738 92.6799 120.344 88.8424 120.344V150.344C95.8849 150.344 102.705 149.222 109.12 146.747L98.3243 118.757ZM88.8424 134.6C93.1884 134.6 97.5163 133.831 101.658 132.126L90.2351 104.386C90.0244 104.473 89.6164 104.6 88.8424 104.6V134.6ZM101.517 132.183C105.644 130.532 109.376 128.082 112.519 124.813L90.8939 104.019C90.8372 104.078 90.7287 104.188 90.3755 104.329L101.517 132.183ZM112.511 124.821C115.661 121.549 118.001 117.741 119.576 113.58L91.5171 102.964C91.2993 103.539 91.0795 103.827 90.9016 104.011L112.511 124.821ZM119.447 113.908C121.22 109.536 121.986 104.967 121.986 100.4H91.9864C91.9864 101.593 91.793 102.272 91.6453 102.636L119.447 113.908ZM121.986 100.4C121.986 95.8253 121.238 91.1881 119.393 86.7588L91.7002 98.2972C91.7747 98.4759 91.9864 99.0867 91.9864 100.4H121.986ZM119.576 87.2196C117.985 83.0161 115.592 79.1526 112.313 75.8734L91.0998 97.0866C91.1486 97.1354 91.3156 97.3039 91.5171 97.8364L119.576 87.2196ZM112.713 76.2889C109.563 72.887 105.772 70.3186 101.517 68.6168L90.3755 96.4711C90.601 96.5614 90.6499 96.617 90.7 96.6711L112.713 76.2889ZM101.658 68.6738C97.5163 66.9686 93.1884 66.2 88.8424 66.2V96.2C89.6164 96.2 90.0244 96.3274 90.2351 96.4142L101.658 68.6738ZM88.8424 66.2C84.4921 66.2 80.1897 66.9696 76.0715 68.6168L87.2132 96.4711C87.575 96.3264 88.0726 96.2 88.8424 96.2V66.2ZM75.9311 68.6738C71.7979 70.3758 68.1526 72.882 65.0776 76.0754L86.6872 96.8846C86.9401 96.622 87.1349 96.5042 87.3536 96.4142L75.9311 68.6738ZM65.0699 76.0834C62.0123 79.2633 59.7418 82.9445 58.1413 86.8924L85.9435 98.1636C86.263 97.3755 86.5525 97.0247 86.6949 96.8766L65.0699 76.0834ZM58.0623 87.0913C56.3769 91.4251 55.6984 95.9433 55.6984 100.4H85.6984C85.6984 98.9687 85.9158 98.2389 86.0224 97.9647L58.0623 87.0913ZM55.6984 100.4C55.6984 104.847 56.3934 109.3 58.0131 113.58L86.0717 102.964C85.8994 102.508 85.6984 101.713 85.6984 100.4H55.6984ZM58.1413 113.908C59.7247 117.813 61.9427 121.439 64.876 124.607L86.8888 104.225C86.6221 103.937 86.2801 103.467 85.9435 102.636L58.1413 113.908ZM65.2758 125.023C68.3401 128.087 71.9239 130.476 75.9311 132.126L87.3536 104.386C87.0088 104.244 86.7526 104.073 86.489 103.809L65.2758 125.023ZM76.0715 132.183C80.1897 133.83 84.4921 134.6 88.8424 134.6V104.6C88.0726 104.6 87.575 104.474 87.2132 104.329L76.0715 132.183ZM180.11 83.6L173.297 96.9636C173.367 96.9992 173.437 97.0343 173.508 97.0688L180.11 83.6ZM187.79 91.088L174.631 98.2882C174.666 98.3514 174.701 98.4143 174.736 98.477L187.79 91.088ZM190.67 134V149C198.954 149 205.67 142.284 205.67 134H190.67ZM172.43 134H157.43C157.43 142.284 164.146 149 172.43 149V134ZM170.126 99.152L158.707 108.879C158.836 109.031 158.969 109.18 159.104 109.326L170.126 99.152ZM158.606 97.904L165.526 111.212C165.664 111.141 165.8 111.067 165.935 110.992L158.606 97.904ZM153.518 134V149C161.802 149 168.518 142.284 168.518 134H153.518ZM135.278 134H120.278C120.278 142.284 126.994 149 135.278 149V134ZM135.278 62.768V47.768C126.994 47.768 120.278 54.4837 120.278 62.768H135.278ZM153.518 62.768H168.518C168.518 54.4837 161.802 47.768 153.518 47.768V62.768ZM153.518 96.752L142.793 107.239C147.056 111.599 153.534 112.944 159.18 110.642C164.827 108.34 168.518 102.85 168.518 96.752H153.518ZM149.294 92.432L136.015 85.4551C132.989 91.2141 134.021 98.2672 138.569 102.919L149.294 92.432ZM157.454 83.984L164.551 97.1989C164.614 97.1652 164.676 97.131 164.739 97.0964L157.454 83.984ZM169.166 96.104C171.072 96.104 172.349 96.4801 173.297 96.9636L186.923 70.2364C181.343 67.3919 175.324 66.104 169.166 66.104V96.104ZM173.508 97.0688C173.81 97.217 174.161 97.4293 174.631 98.2882L200.949 83.8878C197.707 77.9627 192.938 73.183 186.712 70.1312L173.508 97.0688ZM174.736 98.477C174.987 98.9204 175.67 100.517 175.67 104.24H205.67C205.67 97.211 204.433 90.0396 200.844 83.699L174.736 98.477ZM175.67 104.24V134H205.67V104.24H175.67ZM190.67 119H172.43V149H190.67V119ZM187.43 134V107.216H157.43V134H187.43ZM187.43 107.216C187.43 102.002 186.449 94.7204 181.148 88.9778L159.104 109.326C157.951 108.077 157.543 106.93 157.431 106.537C157.33 106.185 157.43 106.327 157.43 107.216H187.43ZM181.545 89.425C176.69 83.7265 170.076 81.56 163.886 81.56V111.56C163.629 111.56 162.808 111.518 161.708 111.06C160.543 110.576 159.495 109.803 158.707 108.879L181.545 89.425ZM163.886 81.56C159.525 81.56 155.223 82.6066 151.277 84.8164L165.935 110.992C165.605 111.176 165.226 111.331 164.826 111.432C164.43 111.533 164.103 111.56 163.886 111.56V81.56ZM151.686 84.5957C146.968 87.0487 143.592 90.8389 141.445 95.1318L168.278 108.548C168.132 108.842 167.841 109.321 167.338 109.85C166.824 110.391 166.203 110.86 165.526 111.212L151.686 84.5957ZM141.445 95.1318C139.154 99.7149 138.518 104.587 138.518 108.848H168.518C168.518 108.515 168.531 108.259 168.547 108.074C168.563 107.888 168.58 107.788 168.585 107.761C168.598 107.698 168.546 108.012 168.278 108.548L141.445 95.1318ZM138.518 108.848V134H168.518V108.848H138.518ZM153.518 119H135.278V149H153.518V119ZM150.278 134V62.768H120.278V134H150.278ZM135.278 77.768H153.518V47.768H135.278V77.768ZM138.518 62.768V96.752H168.518V62.768H138.518ZM164.243 86.2652L160.019 81.9452L138.569 102.919L142.793 107.239L164.243 86.2652ZM162.573 99.4089C163.292 98.0402 163.963 97.5148 164.551 97.1989L150.357 70.7691C144.033 74.1652 139.264 79.2717 136.015 85.4551L162.573 99.4089ZM164.739 97.0964C165.747 96.5361 167.1 96.104 169.166 96.104V66.104C162.528 66.104 156.073 67.5919 150.169 70.8716L164.739 97.0964ZM202.986 134H187.986C187.986 142.284 194.701 149 202.986 149V134ZM202.986 66.8V51.8C194.701 51.8 187.986 58.5157 187.986 66.8H202.986ZM218.634 66.8L231.443 58.9957C228.721 54.5269 223.866 51.8 218.634 51.8V66.8ZM246.474 112.496V127.496C251.896 127.496 256.896 124.57 259.552 119.842C262.207 115.115 262.105 109.322 259.283 104.692L246.474 112.496ZM238.218 112.496L225.312 104.85C222.566 109.487 222.517 115.241 225.185 119.923C227.854 124.605 232.829 127.496 238.218 127.496V112.496ZM265.29 66.8V51.8C259.991 51.8 255.085 54.5956 252.384 59.1544L265.29 66.8ZM280.938 66.8L295.938 66.7571C295.914 58.4896 289.205 51.8 280.938 51.8V66.8ZM281.13 134V149C285.115 149 288.937 147.414 291.751 144.591C294.566 141.769 296.141 137.943 296.13 133.957L281.13 134ZM263.658 134L248.658 134.071C248.697 142.327 255.401 149 263.658 149V134ZM263.466 93.392V78.392C259.475 78.392 255.649 79.9821 252.834 82.8105C250.019 85.6389 248.447 89.4724 248.466 93.4629L263.466 93.392ZM266.442 93.392L279.326 101.072C282.089 96.4366 282.149 90.6745 279.484 85.9825C276.818 81.2906 271.838 78.392 266.442 78.392V93.392ZM246.186 127.376V142.376C251.47 142.376 256.365 139.595 259.07 135.056L246.186 127.376ZM237.738 127.376L224.949 135.215C227.676 139.664 232.519 142.376 237.738 142.376V127.376ZM216.906 93.392V78.392C211.476 78.392 206.47 81.3261 203.818 86.0636C201.165 90.8011 201.28 96.6022 204.117 101.231L216.906 93.392ZM220.554 93.392H235.554C235.554 85.1077 228.838 78.392 220.554 78.392V93.392ZM220.554 134V149C228.838 149 235.554 142.284 235.554 134H220.554ZM217.986 134V66.8H187.986V134H217.986ZM202.986 81.8H218.634V51.8H202.986V81.8ZM205.824 74.6043L233.664 120.3L259.283 104.692L231.443 58.9957L205.824 74.6043ZM246.474 97.496H238.218V127.496H246.474V97.496ZM251.123 120.142L278.195 74.4455L252.384 59.1544L225.312 104.85L251.123 120.142ZM265.29 81.8H280.938V51.8H265.29V81.8ZM265.938 66.8429L266.13 134.043L296.13 133.957L295.938 66.7571L265.938 66.8429ZM281.13 119H263.658V149H281.13V119ZM278.657 133.929L278.465 93.3211L248.466 93.4629L248.658 134.071L278.657 133.929ZM263.466 108.392H266.442V78.392H263.466V108.392ZM253.557 85.7121L233.301 119.696L259.07 135.056L279.326 101.072L253.557 85.7121ZM246.186 112.376H237.738V142.376H246.186V112.376ZM250.526 119.537L229.694 85.5527L204.117 101.231L224.949 135.215L250.526 119.537ZM216.906 108.392H220.554V78.392H216.906V108.392ZM205.554 93.392V134H235.554V93.392H205.554ZM220.554 119H202.986V149H220.554V119ZM294.291 152.144L298.839 137.85C298.771 137.828 298.701 137.807 298.632 137.786L294.291 152.144ZM287.571 148.784L274.135 142.116C271.021 148.392 272.665 155.987 278.096 160.413L287.571 148.784ZM293.907 136.016L303.832 124.768C300.334 121.682 295.599 120.399 291.022 121.296C286.444 122.194 282.544 125.17 280.471 129.348L293.907 136.016ZM297.651 138.224L303.117 124.255C303.005 124.211 302.891 124.168 302.778 124.127L297.651 138.224ZM306.675 137.744L297.466 125.904L297.466 125.904L306.675 137.744ZM309.651 133.52L323.415 139.484C323.477 139.341 323.536 139.197 323.594 139.053L309.651 133.52ZM312.051 127.472L300.278 118.177C299.376 119.319 298.646 120.587 298.109 121.939L312.051 127.472ZM313.491 125.648L325.265 134.943C326.146 133.826 326.864 132.59 327.397 131.272L313.491 125.648ZM331.155 81.968V66.968C325.043 66.968 319.541 70.6774 317.249 76.3445L331.155 81.968ZM348.531 81.968L362.386 87.7163C364.307 83.0876 363.789 77.8056 361.006 73.6381C358.223 69.4705 353.543 66.968 348.531 66.968V81.968ZM326.067 136.112L312.213 130.364C312.188 130.423 312.164 130.482 312.14 130.541L326.067 136.112ZM319.827 146.576L308.945 136.252C308.855 136.347 308.766 136.444 308.678 136.542L319.827 146.576ZM312.051 151.952L307.026 137.819C306.993 137.831 306.959 137.843 306.925 137.855L312.051 151.952ZM309.747 136.208L295.933 142.052C297.857 146.6 301.896 149.91 306.734 150.902C311.572 151.894 316.588 150.441 320.147 147.017L309.747 136.208ZM286.803 81.968V66.968C281.774 66.968 277.079 69.4888 274.3 73.6812C271.522 77.8736 271.029 83.1796 272.989 87.8118L286.803 81.968ZM305.523 81.968L319.442 76.3752C317.158 70.6919 311.648 66.968 305.523 66.968V81.968ZM322.419 124.016L332.819 134.825C337.225 130.586 338.617 124.097 336.338 118.423L322.419 124.016ZM302.643 138.488C301.545 138.488 300.293 138.313 298.839 137.85L289.743 166.438C293.922 167.767 298.238 168.488 302.643 168.488V138.488ZM298.632 137.786C297.235 137.363 296.887 137.026 297.046 137.155L278.096 160.413C281.711 163.358 285.844 165.261 289.951 166.502L298.632 137.786ZM301.008 155.452L307.344 142.684L280.471 129.348L274.135 142.116L301.008 155.452ZM283.983 147.264C286.524 149.506 289.412 151.189 292.525 152.321L302.778 124.127C303.075 124.235 303.467 124.446 303.832 124.768L283.983 147.264ZM292.185 152.193C295.187 153.367 298.478 154.088 301.971 154.088V124.088C302.649 124.088 303.06 124.233 303.117 124.255L292.185 152.193ZM301.971 154.088C306.103 154.088 311.295 153.154 315.884 149.584L297.466 125.904C299.752 124.126 301.807 124.088 301.971 124.088V154.088ZM315.884 149.584C319.7 146.617 321.989 142.774 323.415 139.484L295.888 127.556C295.796 127.768 295.817 127.667 296.021 127.377C296.23 127.081 296.683 126.513 297.466 125.904L315.884 149.584ZM323.594 139.053L325.994 133.005L298.109 121.939L295.709 127.987L323.594 139.053ZM323.825 136.767L325.265 134.943L301.718 116.353L300.278 118.177L323.825 136.767ZM327.397 131.272L345.061 87.5915L317.249 76.3445L299.585 120.024L327.397 131.272ZM331.155 96.968H348.531V66.968H331.155V96.968ZM334.677 76.2197L312.213 130.364L339.922 141.86L362.386 87.7163L334.677 76.2197ZM312.14 130.541C310.79 133.916 309.595 135.568 308.945 136.252L330.709 156.9C334.796 152.592 337.76 147.268 339.995 141.683L312.14 130.541ZM308.678 136.542C307.828 137.486 307.271 137.732 307.026 137.819L317.077 166.085C322.592 164.124 327.219 160.786 330.977 156.61L308.678 136.542ZM306.925 137.855C305.983 138.198 304.615 138.488 302.643 138.488V168.488C307.584 168.488 312.488 167.754 317.178 166.049L306.925 137.855ZM323.562 130.364L300.618 76.1242L272.989 87.8118L295.933 142.052L323.562 130.364ZM286.803 96.968H305.523V66.968H286.803V96.968ZM291.605 87.5608L308.501 129.609L336.338 118.423L319.442 76.3752L291.605 87.5608ZM312.019 113.207L299.347 125.399L320.147 147.017L332.819 134.825L312.019 113.207ZM354.111 134H339.111C339.111 142.284 345.826 149 354.111 149V134ZM354.111 66.8V51.8C345.826 51.8 339.111 58.5157 339.111 66.8H354.111ZM369.759 66.8L381.31 57.2314C378.461 53.7911 374.226 51.8 369.759 51.8V66.8ZM406.815 111.536V126.536C412.627 126.536 417.916 123.178 420.389 117.918C422.862 112.659 422.074 106.443 418.366 101.967L406.815 111.536ZM399.423 111.536H384.423C384.423 119.82 391.138 126.536 399.423 126.536V111.536ZM399.423 66.8V51.8C391.138 51.8 384.423 58.5157 384.423 66.8H399.423ZM418.047 66.8H433.047C433.047 58.5157 426.331 51.8 418.047 51.8V66.8ZM418.047 134V149C426.331 149 433.047 142.284 433.047 134H418.047ZM402.399 134L390.847 143.569C393.697 147.009 397.931 149 402.399 149V134ZM365.343 89.264V74.264C359.53 74.264 354.241 77.6217 351.768 82.8816C349.295 88.1414 350.083 94.3565 353.791 98.8326L365.343 89.264ZM372.735 89.264H387.735C387.735 80.9797 381.019 74.264 372.735 74.264V89.264ZM372.735 134V149C381.019 149 387.735 142.284 387.735 134H372.735ZM369.111 134V66.8H339.111V134H369.111ZM354.111 81.8H369.759V51.8H354.111V81.8ZM358.207 76.3686L395.263 121.105L418.366 101.967L381.31 57.2314L358.207 76.3686ZM406.815 96.536H399.423V126.536H406.815V96.536ZM414.423 111.536V66.8H384.423V111.536H414.423ZM399.423 81.8H418.047V51.8H399.423V81.8ZM403.047 66.8V134H433.047V66.8H403.047ZM418.047 119H402.399V149H418.047V119ZM413.95 124.431L376.894 79.6954L353.791 98.8326L390.847 143.569L413.95 124.431ZM365.343 104.264H372.735V74.264H365.343V104.264ZM357.735 89.264V134H387.735V89.264H357.735ZM372.735 119H354.111V149H372.735V119ZM462.366 134H447.366C447.366 142.284 454.082 149 462.366 149V134ZM462.366 124.304H477.366C477.366 121.895 476.786 119.521 475.675 117.384L462.366 124.304ZM461.118 121.904H446.118C446.118 124.313 446.699 126.687 447.81 128.824L461.118 121.904ZM458.43 97.424L448.239 108.43C448.38 108.561 448.523 108.688 448.669 108.813L458.43 97.424ZM442.494 96.272L446.805 110.639C446.914 110.607 447.022 110.573 447.131 110.538L442.494 96.272ZM435.966 99.536L422.529 106.203C424.536 110.247 428.258 113.173 432.662 114.167C437.066 115.162 441.683 114.12 445.234 111.331L435.966 99.536ZM429.822 87.152L421.628 74.5878C415.258 78.7421 413.005 87.006 416.385 93.8185L429.822 87.152ZM440.382 82.736L444.02 97.2881C444.073 97.275 444.125 97.2616 444.178 97.2479L440.382 82.736ZM472.35 86.96L462.654 98.4048C462.711 98.453 462.768 98.5008 462.826 98.5481L472.35 86.96ZM479.358 134V149C487.643 149 494.358 142.284 494.358 134H479.358ZM436.446 132.752L443.035 119.276L436.446 132.752ZM429.822 126.992L416.99 134.759C417.039 134.84 417.089 134.921 417.14 135.002L429.822 126.992ZM430.014 110.576L417.741 101.952C417.726 101.975 417.71 101.997 417.694 102.02L430.014 110.576ZM437.598 105.2L442.66 119.32C442.739 119.292 442.816 119.263 442.894 119.234L437.598 105.2ZM463.038 103.28H478.038C478.038 94.9957 471.323 88.28 463.038 88.28V103.28ZM463.038 112.784V127.784C471.323 127.784 478.038 121.068 478.038 112.784H463.038ZM447.006 114.224L437.712 102.451C437.608 102.533 437.505 102.616 437.404 102.701L447.006 114.224ZM447.102 121.904L437.808 133.677L437.808 133.677L447.102 121.904ZM457.47 121.904L465.188 134.766C465.236 134.737 465.284 134.708 465.332 134.679L457.47 121.904ZM461.118 117.296L475.18 112.073C473 106.204 467.403 102.306 461.142 102.296C454.881 102.286 449.272 106.167 447.073 112.029L461.118 117.296ZM463.614 124.016L478.104 127.897C478.909 124.892 478.759 121.71 477.676 118.793L463.614 124.016ZM457.95 132.176L466.135 144.746C466.159 144.731 466.182 144.716 466.205 144.7L457.95 132.176ZM477.366 134V124.304H447.366V134H477.366ZM475.675 117.384L474.427 114.984L447.81 128.824L449.058 131.224L475.675 117.384ZM476.118 121.904V104.048H446.118V121.904H476.118ZM476.118 104.048C476.118 97.8422 474.033 91.0415 468.192 86.0351L448.669 108.813C447.728 108.007 446.991 106.965 446.547 105.872C446.134 104.853 446.118 104.148 446.118 104.048H476.118ZM468.621 86.4176C462.823 81.0486 455.448 80.024 450.078 80.024V110.024C451.023 110.024 451.214 110.13 450.904 110.041C450.55 109.939 449.448 109.55 448.239 108.43L468.621 86.4176ZM450.078 80.024C445.889 80.024 441.798 80.726 437.858 82.0065L447.131 110.538C448.311 110.154 449.276 110.024 450.078 110.024V80.024ZM438.184 81.9046C434.131 83.1206 430.199 84.991 426.699 87.7412L445.234 111.331C445.317 111.265 445.738 110.959 446.805 110.639L438.184 81.9046ZM449.404 92.8695L443.26 80.4855L416.385 93.8185L422.529 106.203L449.404 92.8695ZM438.016 99.7162C439.314 98.87 441.227 97.9865 444.02 97.2881L436.744 68.1839C431.346 69.5335 426.219 71.594 421.628 74.5878L438.016 99.7162ZM444.178 97.2479C447.16 96.4678 450.013 96.104 452.766 96.104V66.104C447.327 66.104 441.924 66.8282 436.587 68.2241L444.178 97.2479ZM452.766 96.104C459.067 96.104 461.662 97.5645 462.654 98.4048L482.047 75.5152C473.822 68.5475 463.362 66.104 452.766 66.104V96.104ZM462.826 98.5481C462.884 98.5957 464.358 99.6017 464.358 105.104H494.358C494.358 94.0943 491.161 83.0043 481.875 75.3719L462.826 98.5481ZM464.358 105.104V134H494.358V105.104H464.358ZM479.358 119H462.366V149H479.358V119ZM447.006 119.864C444.475 119.864 443.346 119.429 443.035 119.276L429.858 146.228C435.306 148.891 441.218 149.864 447.006 149.864V119.864ZM443.035 119.276C442.658 119.092 442.502 118.962 442.473 118.937C442.453 118.919 442.479 118.941 442.505 118.982L417.14 135.002C420.327 140.048 424.774 143.742 429.858 146.228L443.035 119.276ZM442.655 119.225C442.643 119.205 442.641 119.199 442.644 119.205C442.646 119.211 442.647 119.215 442.646 119.21C442.644 119.205 442.637 119.178 442.63 119.122C442.623 119.066 442.614 118.971 442.614 118.832H412.614C412.614 124.412 414.016 129.846 416.99 134.759L442.655 119.225ZM442.614 118.832C442.614 118.486 442.657 118.423 442.618 118.555C442.6 118.619 442.567 118.711 442.515 118.82C442.463 118.93 442.401 119.036 442.335 119.132L417.694 102.02C414.111 107.179 412.614 113.019 412.614 118.832H442.614ZM442.287 119.2C442.185 119.346 442.081 119.465 441.99 119.555C441.901 119.644 441.841 119.688 441.833 119.693C441.82 119.702 442.045 119.541 442.66 119.32L432.536 91.0799C426.952 93.082 421.579 96.4906 417.741 101.952L442.287 119.2ZM442.894 119.234C443.985 118.822 446.393 118.28 450.75 118.28V88.28C444.356 88.28 437.996 89.0175 432.303 91.166L442.894 119.234ZM450.75 118.28H463.038V88.28H450.75V118.28ZM448.038 103.28V112.784H478.038V103.28H448.038ZM463.038 97.784H453.246V127.784H463.038V97.784ZM453.246 97.784C449.549 97.784 443.08 98.2128 437.712 102.451L456.301 125.997C454.642 127.307 453.203 127.679 452.851 127.76C452.458 127.851 452.515 127.784 453.246 127.784V97.784ZM437.404 102.701C432.578 106.722 430.278 112.353 430.278 118.064H460.278C460.278 119.09 460.086 120.511 459.389 122.059C458.68 123.635 457.659 124.872 456.609 125.747L437.404 102.701ZM430.278 118.064C430.278 124.08 432.853 129.766 437.808 133.677L456.397 110.131C457.427 110.944 458.509 112.157 459.284 113.788C460.051 115.405 460.278 116.926 460.278 118.064H430.278ZM437.808 133.677C442.488 137.373 447.824 138.344 452.094 138.344V108.344C452.141 108.344 454.148 108.355 456.397 110.131L437.808 133.677ZM452.094 138.344C456.618 138.344 461.108 137.214 465.188 134.766L449.753 109.042C450.143 108.808 450.585 108.618 451.045 108.495C451.5 108.373 451.867 108.344 452.094 108.344V138.344ZM465.332 134.679C470.172 131.7 473.373 127.338 475.163 122.563L447.073 112.029C447.173 111.763 447.406 111.26 447.87 110.673C448.346 110.072 448.945 109.538 449.609 109.129L465.332 134.679ZM447.057 122.519L449.553 129.239L477.676 118.793L475.18 112.073L447.057 122.519ZM449.125 120.135C449.039 120.456 449.002 120.412 449.156 120.191C449.228 120.087 449.321 119.976 449.429 119.87C449.537 119.765 449.633 119.693 449.696 119.652L466.205 144.7C472.403 140.615 476.296 134.645 478.104 127.897L449.125 120.135ZM449.765 119.606C450.216 119.313 449.72 119.864 447.006 119.864V149.864C453.381 149.864 460.181 148.623 466.135 144.746L449.765 119.606ZM498.552 129.968L488.538 141.137C488.574 141.169 488.61 141.201 488.647 141.233L498.552 129.968ZM492.984 70.352V55.352C484.699 55.352 477.984 62.0677 477.984 70.352H492.984ZM511.224 70.352H526.224C526.224 62.0677 519.508 55.352 511.224 55.352V70.352ZM512.76 119.216L501.837 129.496C501.94 129.607 502.046 129.715 502.153 129.823L512.76 119.216ZM522.264 119.12L536.407 114.122C534.84 109.688 531.284 106.246 526.802 104.823C522.32 103.4 517.431 104.162 513.593 106.88L522.264 119.12ZM526.776 131.888L535.096 144.369C540.808 140.561 543.206 133.362 540.919 126.89L526.776 131.888ZM521.112 134.096L518.17 119.387C518.036 119.414 517.902 119.443 517.769 119.473L521.112 134.096ZM485.4 97.52H470.4C470.4 105.804 477.115 112.52 485.4 112.52V97.52ZM485.4 83.888V68.888C477.115 68.888 470.4 75.6037 470.4 83.888H485.4ZM523.128 83.888H538.128C538.128 75.6037 531.412 68.888 523.128 68.888V83.888ZM523.128 97.52V112.52C531.412 112.52 538.128 105.804 538.128 97.52H523.128ZM514.104 119.864C509.817 119.864 508.604 118.833 508.457 118.703L488.647 141.233C495.923 147.631 505.078 149.864 514.104 149.864V119.864ZM508.565 118.799C508.565 118.799 508.57 118.804 508.577 118.813C508.584 118.821 508.586 118.824 508.582 118.817C508.577 118.81 508.517 118.721 508.435 118.501C508.263 118.036 507.984 116.964 507.984 114.992H477.984C477.984 124.409 480.685 134.095 488.538 141.137L508.565 118.799ZM507.984 114.992V70.352H477.984V114.992H507.984ZM492.984 85.352H511.224V55.352H492.984V85.352ZM496.224 70.352V114.8H526.224V70.352H496.224ZM496.224 114.8C496.224 119.506 497.597 124.992 501.837 129.496L523.683 108.936C524.679 109.994 525.369 111.2 525.775 112.368C526.164 113.486 526.224 114.362 526.224 114.8H496.224ZM502.153 129.823C506.298 133.968 511.575 135.752 516.696 135.752V105.752C517.51 105.752 518.663 105.886 519.965 106.394C521.296 106.914 522.454 107.697 523.366 108.609L502.153 129.823ZM516.696 135.752C521.477 135.752 526.483 134.513 530.934 131.36L513.593 106.88C514.217 106.438 514.88 106.131 515.501 105.95C516.102 105.773 516.531 105.752 516.696 105.752V135.752ZM508.121 124.118L512.633 136.886L540.919 126.89L536.407 114.122L508.121 124.118ZM518.455 119.407C518.671 119.264 518.792 119.22 518.76 119.232C518.723 119.247 518.541 119.313 518.17 119.387L524.053 148.805C527.773 148.061 531.593 146.704 535.096 144.369L518.455 119.407ZM517.769 119.473C516.688 119.72 515.476 119.864 514.104 119.864V149.864C517.595 149.864 521.056 149.496 524.454 148.719L517.769 119.473ZM500.4 97.52V83.888H470.4V97.52H500.4ZM485.4 98.888H523.128V68.888H485.4V98.888ZM508.128 83.888V97.52H538.128V83.888H508.128ZM523.128 82.52H485.4V112.52H523.128V82.52ZM533.809 134H518.809C518.809 142.284 525.525 149 533.809 149V134ZM533.809 81.968V66.968C525.525 66.968 518.809 73.6837 518.809 81.968H533.809ZM552.049 81.968H567.049C567.049 73.6837 560.333 66.968 552.049 66.968V81.968ZM552.049 134V149C560.333 149 567.049 142.284 567.049 134H552.049ZM534.865 73.424L544.938 62.3092L544.938 62.3092L534.865 73.424ZM534.865 59.6L544.938 70.7148L544.938 70.7148L534.865 59.6ZM550.993 59.504L541.116 70.7926C541.183 70.8518 541.251 70.9104 541.32 70.9684L550.993 59.504ZM550.993 73.424L561.24 84.3781C561.244 84.3744 561.248 84.3707 561.252 84.3671L550.993 73.424ZM548.809 134V81.968H518.809V134H548.809ZM533.809 96.968H552.049V66.968H533.809V96.968ZM537.049 81.968V134H567.049V81.968H537.049ZM552.049 119H533.809V149H552.049V119ZM542.929 61.208C542.654 61.208 542.839 61.1698 543.312 61.3332C543.827 61.5108 544.417 61.837 544.938 62.3092L524.792 84.5388C530.14 89.3852 536.678 91.208 542.929 91.208V61.208ZM544.938 62.3092C545.312 62.648 545.853 63.2779 546.268 64.2119C546.684 65.1475 546.793 65.9832 546.793 66.512H516.793C516.793 73.5192 519.622 79.8534 524.792 84.5388L544.938 62.3092ZM546.793 66.512C546.793 67.0408 546.684 67.8765 546.268 68.8121C545.853 69.7461 545.312 70.376 544.938 70.7148L524.792 48.4852C519.622 53.1706 516.793 59.5048 516.793 66.512H546.793ZM544.938 70.7148C544.417 71.187 543.827 71.5132 543.312 71.6908C542.839 71.8542 542.654 71.816 542.929 71.816V41.816C536.678 41.816 530.14 43.6388 524.792 48.4852L544.938 70.7148ZM542.929 71.816C543.255 71.816 543.124 71.8602 542.698 71.7182C542.231 71.5628 541.652 71.2623 541.116 70.7926L560.871 48.2153C555.513 43.5275 549.046 41.816 542.929 41.816V71.816ZM541.32 70.9684C540.802 70.5316 540.143 69.7831 539.655 68.7164C539.172 67.6607 539.065 66.7463 539.065 66.224H569.065C569.065 59.1899 566.196 52.7052 560.666 48.0396L541.32 70.9684ZM539.065 66.224C539.065 65.8516 539.14 65.143 539.5 64.2974C539.865 63.4432 540.358 62.8337 540.734 62.4809L561.252 84.3671C566.413 79.5293 569.065 73.1286 569.065 66.224H539.065ZM540.746 62.4699C541.363 61.8921 542.042 61.5237 542.594 61.3332C543.095 61.1602 543.271 61.208 542.929 61.208V91.208C549.137 91.208 555.831 89.4388 561.24 84.3781L540.746 62.4699ZM578.399 134L564.527 139.707C566.84 145.33 572.319 149 578.399 149V134ZM556.991 81.968V66.968C551.987 66.968 547.313 69.4628 544.529 73.6197C541.744 77.7766 541.215 83.0483 543.119 87.6754L556.991 81.968ZM575.711 81.968L589.672 76.4823C587.416 70.7425 581.878 66.968 575.711 66.968V81.968ZM592.799 125.456V140.456C597.76 140.456 602.4 138.003 605.194 133.903C607.988 129.804 608.574 124.588 606.76 119.97L592.799 125.456ZM583.391 125.456L569.526 119.732C567.615 124.36 568.14 129.636 570.924 133.797C573.708 137.958 578.384 140.456 583.391 140.456V125.456ZM601.343 81.968V66.968C595.269 66.968 589.795 70.6304 587.478 76.2444L601.343 81.968ZM618.719 81.968L632.582 87.6972C634.494 83.0693 633.971 77.7921 631.188 73.6295C628.404 69.4669 623.727 66.968 618.719 66.968V81.968ZM597.215 134V149C603.286 149 608.759 145.34 611.078 139.729L597.215 134ZM592.271 128.293L570.863 76.2606L543.119 87.6754L564.527 139.707L592.271 128.293ZM556.991 96.968H575.711V66.968H556.991V96.968ZM561.75 87.4537L578.838 130.942L606.76 119.97L589.672 76.4823L561.75 87.4537ZM592.799 110.456H583.391V140.456H592.799V110.456ZM597.256 131.18L615.208 87.6916L587.478 76.2444L569.526 119.732L597.256 131.18ZM601.343 96.968H618.719V66.968H601.343V96.968ZM604.856 76.2387L583.352 128.271L611.078 139.729L632.582 87.6972L604.856 76.2387ZM597.215 119H578.399V149H597.215V119ZM633.164 131.408L626.232 144.71C626.306 144.749 626.381 144.787 626.456 144.824L633.164 131.408ZM622.508 121.808L609.699 129.614C609.747 129.692 609.795 129.77 609.845 129.848L622.508 121.808ZM622.412 94.064L609.603 86.2584C609.591 86.2778 609.579 86.2972 609.568 86.3166L622.412 94.064ZM632.684 84.56L639.549 97.897C639.6 97.8706 639.651 97.8439 639.702 97.8168L632.684 84.56ZM661.388 84.272L654.68 97.6884C654.734 97.7157 654.789 97.7426 654.844 97.7692L661.388 84.272ZM671.468 93.392L684.222 85.4967L684.222 85.4967L671.468 93.392ZM675.116 110.288L690.072 111.438L690.072 111.438L675.116 110.288ZM674.924 112.592V127.592C682.682 127.592 689.16 121.676 689.862 113.95L674.924 112.592ZM633.74 112.592H618.74C618.74 120.876 625.456 127.592 633.74 127.592V112.592ZM633.74 102.992V87.992C625.456 87.992 618.74 94.7077 618.74 102.992H633.74ZM665.228 102.992L670.665 116.972C677.391 114.356 681.302 107.32 679.971 100.226C678.64 93.1323 672.446 87.992 665.228 87.992V102.992ZM658.316 105.68L643.321 105.275C643.186 110.296 645.573 115.053 649.68 117.945C653.788 120.837 659.071 121.481 663.753 119.66L658.316 105.68ZM656.972 99.536L643.656 106.441C643.722 106.568 643.79 106.695 643.86 106.821L656.972 99.536ZM653.132 95.504L645.414 108.366C645.488 108.41 645.562 108.454 645.636 108.497L653.132 95.504ZM641.708 95.504L634.212 82.5112C634.138 82.554 634.064 82.5975 633.99 82.6416L641.708 95.504ZM637.964 99.632L651.28 106.537C651.314 106.471 651.347 106.406 651.38 106.34L637.964 99.632ZM638.156 115.184L625.022 122.43C625.085 122.544 625.15 122.657 625.215 122.77L638.156 115.184ZM642.764 119.504L635.884 132.833C635.999 132.892 636.114 132.95 636.23 133.006L642.764 119.504ZM656.396 119.888L661.881 133.849C661.964 133.816 662.048 133.783 662.131 133.748L656.396 119.888ZM661.868 116.432L672.68 106.035C667.169 100.304 658.143 99.8685 652.106 105.043L661.868 116.432ZM671.468 126.416L682.579 136.493C687.877 130.651 687.747 121.704 682.28 116.019L671.468 126.416ZM662.252 132.752L667.653 146.746C667.724 146.719 667.794 146.691 667.865 146.662L662.252 132.752ZM649.292 119.864C645.032 119.864 642.033 119.072 639.872 117.992L626.456 144.824C633.511 148.352 641.264 149.864 649.292 149.864V119.864ZM640.096 118.106C637.716 116.865 636.214 115.41 635.171 113.768L609.845 129.848C613.922 136.27 619.524 141.215 626.232 144.71L640.096 118.106ZM635.317 114.002C634.369 112.447 633.764 110.549 633.764 107.888H603.764C603.764 115.595 605.654 122.977 609.699 129.614L635.317 114.002ZM633.764 107.888C633.764 105.15 634.374 103.273 635.256 101.811L609.568 86.3166C605.585 92.9186 603.764 100.258 603.764 107.888H633.764ZM635.221 101.87C636.251 100.179 637.596 98.902 639.549 97.897L625.819 71.223C619.068 74.698 613.565 79.757 609.603 86.2584L635.221 101.87ZM639.702 97.8168C641.672 96.7737 644.117 96.104 647.372 96.104V66.104C639.746 66.104 632.399 67.7382 625.666 71.3032L639.702 97.8168ZM647.372 96.104C650.363 96.104 652.71 96.7037 654.68 97.6884L668.096 70.8556C661.618 67.6163 654.621 66.104 647.372 66.104V96.104ZM654.844 97.7692C656.481 98.5631 657.699 99.6475 658.714 101.287L684.222 85.4967C680.245 79.0725 674.743 74.0769 667.932 70.7748L654.844 97.7692ZM658.714 101.287C659.455 102.484 660.212 104.509 660.212 108.08H690.212C690.212 100.131 688.473 92.3641 684.222 85.4967L658.714 101.287ZM660.212 108.08C660.212 108.241 660.203 108.581 660.16 109.138L690.072 111.438C690.157 110.331 690.212 109.199 690.212 108.08H660.212ZM660.16 109.138C660.1 109.912 660.042 110.61 659.985 111.234L689.862 113.95C689.934 113.166 690.003 112.328 690.072 111.438L660.16 109.138ZM674.924 97.592H633.74V127.592H674.924V97.592ZM648.74 112.592V102.992H618.74V112.592H648.74ZM633.74 117.992H665.228V87.992H633.74V117.992ZM659.791 89.0119L652.879 91.6999L663.753 119.66L670.665 116.972L659.791 89.0119ZM673.31 106.085C673.433 101.566 672.586 96.755 670.084 92.2513L643.86 106.821C643.588 106.332 643.444 105.891 643.374 105.573C643.308 105.27 643.325 105.149 643.321 105.275L673.31 106.085ZM670.288 92.6312C668.092 88.3953 664.808 84.923 660.628 82.5112L645.636 108.497C645.269 108.285 644.862 107.98 644.478 107.577C644.095 107.175 643.827 106.772 643.656 106.441L670.288 92.6312ZM660.849 82.6416C656.555 80.0647 651.905 79.064 647.468 79.064V109.064C647.453 109.064 647.215 109.062 646.82 108.962C646.412 108.858 645.92 108.67 645.414 108.366L660.849 82.6416ZM647.468 79.064C643.016 79.064 638.445 80.0692 634.212 82.5112L649.204 108.497C648.792 108.734 648.385 108.888 648.034 108.976C647.693 109.061 647.486 109.064 647.468 109.064V79.064ZM633.99 82.6416C629.763 85.1784 626.621 88.7766 624.547 92.9238L651.38 106.34C651.265 106.572 651.046 106.932 650.683 107.333C650.314 107.74 649.881 108.093 649.425 108.366L633.99 82.6416ZM624.648 92.7272C622.431 97.0027 621.62 101.519 621.62 105.776H651.62C651.62 105.534 651.643 105.515 651.609 105.669C651.574 105.833 651.483 106.145 651.28 106.537L624.648 92.7272ZM621.62 105.776V108.56H651.62V105.776H621.62ZM621.62 108.56C621.62 113.13 622.544 117.938 625.022 122.43L651.29 107.938C651.491 108.302 651.581 108.597 651.616 108.748C651.648 108.887 651.62 108.844 651.62 108.56H621.62ZM625.215 122.77C627.795 127.171 631.477 130.559 635.884 132.833L649.644 106.175C649.808 106.26 650.081 106.43 650.383 106.713C650.688 106.999 650.928 107.312 651.096 107.598L625.215 122.77ZM636.23 133.006C640.694 135.166 645.402 135.944 649.868 135.944V105.944C648.83 105.944 648.802 105.762 649.297 106.002L636.23 133.006ZM649.868 135.944C653.721 135.944 657.87 135.425 661.881 133.849L650.911 105.927C651.143 105.836 651.204 105.843 651.025 105.872C650.843 105.902 650.47 105.944 649.868 105.944V135.944ZM662.131 133.748C665.682 132.279 668.84 130.212 671.63 127.821L652.106 105.043C651.312 105.724 650.822 105.961 650.661 106.028L662.131 133.748ZM651.055 126.829L660.655 136.813L682.28 116.019L672.68 106.035L651.055 126.829ZM660.357 116.339C659.47 117.317 658.315 118.165 656.639 118.842L667.865 146.662C673.485 144.395 678.474 141.019 682.579 136.493L660.357 116.339ZM656.851 118.758C655.329 119.345 652.925 119.864 649.292 119.864V149.864C655.643 149.864 661.879 148.975 667.653 146.746L656.851 118.758Z" fill="#C2433E" mask="url(#path-1-outside-1_155_42)"/>
</svg>
